<svg xmlns="http://www.w3.org/2000/svg" enable-background="new 0 0 3000 2500" viewBox="0 0 3000 2500"><rect width="2918.6" height="2432.2" x="40.7" y="33.9" fill="none"/><g opacity=".3"><ellipse cx="1676.4" cy="1797.1" fill="#0f0a26" opacity="0" rx="128.7" ry="568.6" transform="rotate(-89.12 1676.392 1797.133) scale(1.00002)"/><ellipse cx="1677.5" cy="1797.2" fill="#0f0a26" opacity=".008" rx="128.2" ry="565.8" transform="matrix(.01525 -.9999 .9999 .01525 -145.07 3447.174)"/><ellipse cx="1678.7" cy="1797.3" fill="#0f0a26" opacity=".017" rx="127.7" ry="563" transform="matrix(.01513 -.9999 .9999 .01513 -143.863 3448.628)"/><ellipse cx="1679.8" cy="1797.4" fill="#0f0a26" opacity=".025" rx="127.2" ry="560.2" transform="matrix(.01502 -.9999 .9999 .01502 -142.655 3450.084)"/><ellipse cx="1681" cy="1797.6" fill="#0f0a26" opacity=".033" rx="126.6" ry="557.4" transform="rotate(-89.146 1680.963 1797.554) scale(1.00001)"/><ellipse cx="1682.1" cy="1797.7" fill="#0f0a26" opacity=".041" rx="126.1" ry="554.6" transform="rotate(-89.153 1682.106 1797.663) scale(1.00001)"/><ellipse cx="1683.2" cy="1797.8" fill="#0f0a26" opacity=".05" rx="125.6" ry="551.8" transform="rotate(-89.16 1683.248 1797.773) scale(1.00001)"/><ellipse cx="1684.4" cy="1797.9" fill="#0f0a26" opacity=".058" rx="125.1" ry="549" transform="rotate(-89.166 1684.381 1797.865)"/><ellipse cx="1685.5" cy="1798" fill="#0f0a26" opacity=".066" rx="124.5" ry="546.1" transform="rotate(-89.173 1685.527 1797.975)"/><ellipse cx="1686.7" cy="1798.1" fill="#0f0a26" opacity=".074" rx="124" ry="543.3" transform="rotate(-89.18 1686.677 1798.084)"/><ellipse cx="1687.8" cy="1798.2" fill="#0f0a26" opacity=".083" rx="123.5" ry="540.5" transform="rotate(-89.187 1687.82 1798.194)"/><ellipse cx="1689" cy="1798.3" fill="#0f0a26" opacity=".091" rx="122.9" ry="537.7" transform="rotate(-89.194 1688.962 1798.304)"/><ellipse cx="1690.1" cy="1798.4" fill="#0f0a26" opacity=".099" rx="122.4" ry="534.9" transform="rotate(-89.202 1690.11 1798.413)"/><ellipse cx="1691.2" cy="1798.5" fill="#0f0a26" opacity=".107" rx="121.9" ry="532.1" transform="rotate(-89.209 1691.256 1798.523)"/><ellipse cx="1692.4" cy="1798.6" fill="#0f0a26" opacity=".116" rx="121.4" ry="529.3" transform="rotate(-89.216 1692.401 1798.633)"/><ellipse cx="1693.5" cy="1798.7" fill="#0f0a26" opacity=".124" rx="120.8" ry="526.5" transform="rotate(-89.224 1693.533 1798.725) scale(.99999)"/><ellipse cx="1694.7" cy="1798.8" fill="#0f0a26" opacity=".132" rx="120.3" ry="523.7" transform="rotate(-89.231 1694.676 1798.834) scale(.99999)"/><ellipse cx="1695.8" cy="1798.9" fill="#0f0a26" opacity=".141" rx="119.8" ry="520.9" transform="rotate(-89.239 1695.819 1798.944) scale(.99999)"/><ellipse cx="1697" cy="1799" fill="#0f0a26" opacity=".149" rx="119.3" ry="518.1" transform="matrix(.01315 -.9999 .9999 .01315 -124.246 3472.204)"/><ellipse cx="1698.1" cy="1799.2" fill="#0f0a26" opacity=".157" rx="118.7" ry="515.3" transform="matrix(.01301 -.9999 .9999 .01301 -122.998 3473.699)"/><ellipse cx="1699.2" cy="1799.3" fill="#0f0a26" opacity=".165" rx="118.2" ry="512.5" transform="matrix(.01288 -.9999 .9999 .01288 -121.747 3475.197)"/><ellipse cx="1700.4" cy="1799.4" fill="#0f0a26" opacity=".174" rx="117.7" ry="509.7" transform="rotate(-89.27 1700.39 1799.365) scale(.99998)"/><ellipse cx="1701.5" cy="1799.5" fill="#0f0a26" opacity=".182" rx="117.1" ry="506.9" transform="rotate(-89.278 1701.532 1799.475) scale(.99998)"/><ellipse cx="1702.7" cy="1799.6" fill="#0f0a26" opacity=".19" rx="116.6" ry="504.1" transform="rotate(-89.286 1702.675 1799.585) scale(.99998)"/><ellipse cx="1703.8" cy="1799.7" fill="#0f0a26" opacity=".198" rx="116.1" ry="501.3" transform="rotate(-89.295 1703.826 1799.694) scale(.99998)"/><ellipse cx="1705" cy="1799.8" fill="#0f0a26" opacity=".207" rx="115.6" ry="498.5" transform="matrix(.01217 -.9999 .9999 .01217 -115.444 3482.73)"/><ellipse cx="1706.1" cy="1799.9" fill="#0f0a26" opacity=".215" rx="115" ry="495.6" transform="rotate(-89.311 1706.104 1799.896) scale(.99997)"/><ellipse cx="1707.2" cy="1800" fill="#0f0a26" opacity=".223" rx="114.5" ry="492.8" transform="rotate(-89.32 1707.246 1800.006) scale(.99997)"/><ellipse cx="1708.4" cy="1800.1" fill="#0f0a26" opacity=".231" rx="114" ry="490" transform="rotate(-89.328 1708.389 1800.115) scale(.99997)"/><ellipse cx="1709.5" cy="1800.2" fill="#0f0a26" opacity=".24" rx="113.4" ry="487.2" transform="matrix(.01157 -.9999 .9999 .01157 -110.345 3488.81)"/><ellipse cx="1710.7" cy="1800.3" fill="#0f0a26" opacity=".248" rx="112.9" ry="484.4" transform="matrix(.01141 -.9999 .9999 .01141 -109.061 3490.34)"/><ellipse cx="1711.8" cy="1800.4" fill="#0f0a26" opacity=".256" rx="112.4" ry="481.6" transform="matrix(.01126 -.9999 .9999 .01126 -107.774 3491.87)"/><ellipse cx="1713" cy="1800.5" fill="#0f0a26" opacity=".265" rx="111.9" ry="478.8" transform="rotate(-89.364 1712.96 1800.536) scale(.99996)"/><ellipse cx="1714.1" cy="1800.6" fill="#0f0a26" opacity=".273" rx="111.3" ry="476" transform="rotate(-89.373 1714.103 1800.646) scale(.99996)"/><ellipse cx="1715.2" cy="1800.8" fill="#0f0a26" opacity=".281" rx="110.8" ry="473.2" transform="rotate(-89.382 1715.245 1800.756) scale(.99996)"/><ellipse cx="1716.4" cy="1800.9" fill="#0f0a26" opacity=".289" rx="110.3" ry="470.4" transform="matrix(.01061 -.9999 .9999 .01061 -102.59 3498.033)"/><ellipse cx="1717.5" cy="1801" fill="#0f0a26" opacity=".297" rx="109.8" ry="467.6" transform="matrix(.01045 -.9999 .9999 .01045 -101.284 3499.583)"/><ellipse cx="1718.7" cy="1801.1" fill="#0f0a26" opacity=".306" rx="109.2" ry="464.8" transform="matrix(.01028 -.9999 .9999 .01028 -99.975 3501.136)"/><ellipse cx="1719.8" cy="1801.2" fill="#0f0a26" opacity=".314" rx="108.7" ry="462" transform="rotate(-89.421 1719.816 1801.177) scale(.99995)"/><ellipse cx="1721" cy="1801.3" fill="#0f0a26" opacity=".322" rx="108.2" ry="459.2" transform="matrix(.00994 -1 1 .00994 -97.343 3504.255)"/><ellipse cx="1722.1" cy="1801.4" fill="#0f0a26" opacity=".331" rx="107.6" ry="456.4" transform="matrix(.00976 -1 1 .00976 -96.021 3505.82)"/><ellipse cx="1723.2" cy="1801.5" fill="#0f0a26" opacity=".339" rx="107.1" ry="453.6" transform="matrix(.00959 -1 1 .00959 -94.695 3507.389)"/><ellipse cx="1724.4" cy="1801.6" fill="#0f0a26" opacity=".347" rx="106.6" ry="450.8" transform="matrix(.00941 -1 1 .00941 -93.365 3508.962)"/><ellipse cx="1725.5" cy="1801.7" fill="#0f0a26" opacity=".355" rx="106.1" ry="448" transform="matrix(.00923 -1 1 .00923 -92.03 3510.54)"/><ellipse cx="1726.7" cy="1801.8" fill="#0f0a26" opacity=".364" rx="105.5" ry="445.1" transform="matrix(.00905 -1 1 .00905 -90.69 3512.121)"/><ellipse cx="1727.8" cy="1801.9" fill="#0f0a26" opacity=".372" rx="105" ry="442.3" transform="matrix(.00886 -1 1 .00886 -89.347 3513.707)"/><ellipse cx="1729" cy="1802" fill="#0f0a26" opacity=".38" rx="104.5" ry="439.5" transform="matrix(.00867 -1 1 .00867 -87.998 3515.298)"/><ellipse cx="1730.1" cy="1802.1" fill="#0f0a26" opacity=".388" rx="103.9" ry="436.7" transform="matrix(.00848 -1 1 .00848 -86.644 3516.893)"/><ellipse cx="1731.2" cy="1802.2" fill="#0f0a26" opacity=".397" rx="103.4" ry="433.9" transform="matrix(.00829 -1 1 .00829 -85.286 3518.493)"/><ellipse cx="1732.4" cy="1802.4" fill="#0f0a26" opacity=".405" rx="102.9" ry="431.1" transform="matrix(.0081 -1 1 .0081 -83.923 3520.097)"/><ellipse cx="1733.5" cy="1802.5" fill="#0f0a26" opacity=".413" rx="102.4" ry="428.3" transform="matrix(.0079 -1 1 .0079 -82.554 3521.706)"/><ellipse cx="1734.7" cy="1802.6" fill="#0f0a26" opacity=".421" rx="101.8" ry="425.5" transform="matrix(.00769 -1 1 .00769 -81.18 3523.32)"/><ellipse cx="1735.8" cy="1802.7" fill="#0f0a26" opacity=".43" rx="101.3" ry="422.7" transform="matrix(.00749 -1 1 .00749 -79.802 3524.94)"/><ellipse cx="1737" cy="1802.8" fill="#0f0a26" opacity=".438" rx="100.8" ry="419.9" transform="matrix(.00728 -1 1 .00728 -78.417 3526.564)"/><ellipse cx="1738.1" cy="1802.9" fill="#0f0a26" opacity=".446" rx="100.3" ry="417.1" transform="matrix(.00707 -1 1 .00707 -77.027 3528.193)"/><ellipse cx="1739.2" cy="1803" fill="#0f0a26" opacity=".455" rx="99.7" ry="414.3" transform="matrix(.00686 -1 1 .00686 -75.632 3529.828)"/><ellipse cx="1740.4" cy="1803.1" fill="#0f0a26" opacity=".463" rx="99.2" ry="411.5" transform="matrix(.00664 -1 1 .00664 -74.23 3531.468)"/><ellipse cx="1741.5" cy="1803.2" fill="#0f0a26" opacity=".471" rx="98.7" ry="408.7" transform="matrix(.00642 -1 1 .00642 -72.823 3533.114)"/><ellipse cx="1742.7" cy="1803.3" fill="#0f0a26" opacity=".479" rx="98.1" ry="405.9" transform="rotate(-89.645 1742.67 1803.276)"/><ellipse cx="1743.8" cy="1803.4" fill="#0f0a26" opacity=".488" rx="97.6" ry="403.1" transform="matrix(.00597 -1 1 .00597 -69.99 3536.423)"/><ellipse cx="1745" cy="1803.5" fill="#0f0a26" opacity=".496" rx="97.1" ry="400.3" transform="matrix(.00575 -1 1 .00575 -68.564 3538.086)"/><ellipse cx="1746.1" cy="1803.6" fill="#0f0a26" opacity=".504" rx="96.6" ry="397.5" transform="matrix(.00551 -1 1 .00551 -67.132 3539.755)"/><ellipse cx="1747.2" cy="1803.7" fill="#0f0a26" opacity=".512" rx="96" ry="394.7" transform="matrix(.00528 -1 1 .00528 -65.694 3541.43)"/><ellipse cx="1748.4" cy="1803.8" fill="#0f0a26" opacity=".521" rx="95.5" ry="391.9" transform="matrix(.00504 -1 1 .00504 -64.248 3543.112)"/><ellipse cx="1749.5" cy="1803.9" fill="#0f0a26" opacity=".529" rx="95" ry="389" transform="rotate(-89.725 1749.53 1803.928)"/><ellipse cx="1750.7" cy="1804.1" fill="#0f0a26" opacity=".537" rx="94.4" ry="386.2" transform="matrix(.00455 -1 1 .00455 -61.336 3546.495)"/><ellipse cx="1751.8" cy="1804.2" fill="#0f0a26" opacity=".545" rx="93.9" ry="383.4" transform="rotate(-89.754 1751.809 1804.146)"/><ellipse cx="1753" cy="1804.3" fill="#0f0a26" opacity=".554" rx="93.4" ry="380.6" transform="matrix(.00405 -1 1 .00405 -58.395 3549.905)"/><ellipse cx="1754.1" cy="1804.4" fill="#0f0a26" opacity=".562" rx="92.9" ry="377.8" transform="matrix(.00379 -1 1 .00379 -56.914 3551.62)"/><ellipse cx="1755.2" cy="1804.5" fill="#0f0a26" opacity=".57" rx="92.3" ry="375" transform="rotate(-89.798 1755.228 1804.47)"/><ellipse cx="1756.4" cy="1804.6" fill="#0f0a26" opacity=".579" rx="91.8" ry="372.2" transform="matrix(.00326 -1 1 .00326 -53.927 3555.073)"/><ellipse cx="1757.5" cy="1804.7" fill="#0f0a26" opacity=".587" rx="91.3" ry="369.4" transform="rotate(-89.83 1757.538 1804.687)"/><ellipse cx="1758.7" cy="1804.8" fill="#0f0a26" opacity=".595" rx="90.8" ry="366.6" transform="rotate(-89.844 1758.66 1804.795)"/><ellipse cx="1759.8" cy="1804.9" fill="#0f0a26" opacity=".603" rx="90.2" ry="363.8" transform="matrix(.00244 -1 1 .00244 -49.386 3560.31)"/><ellipse cx="1761" cy="1805" fill="#0f0a26" opacity=".612" rx="89.7" ry="361" transform="rotate(-89.876 1760.952 1805.01)"/><ellipse cx="1762.1" cy="1805.1" fill="#0f0a26" opacity=".62" rx="89.2" ry="358.2" transform="rotate(-89.893 1762.095 1805.118)"/><ellipse cx="1763.2" cy="1805.2" fill="#0f0a26" opacity=".628" rx="88.6" ry="355.4" transform="rotate(-89.91 1763.238 1805.225)"/><ellipse cx="1764.4" cy="1805.3" fill="#0f0a26" opacity=".636" rx="88.1" ry="352.6" transform="rotate(-89.927 1764.38 1805.333)"/><ellipse cx="1765.5" cy="1805.4" fill="#0f0a26" opacity=".645" rx="349.8" ry="87.6"/><ellipse cx="1766.7" cy="1805.5" fill="#0f0a26" opacity=".653" rx="347" ry="87.1"/><ellipse cx="1767.8" cy="1805.7" fill="#0f0a26" opacity=".661" rx="344.2" ry="86.5"/><ellipse cx="1769" cy="1805.8" fill="#0f0a26" opacity=".669" rx="341.4" ry="86"/><ellipse cx="1770.1" cy="1805.9" fill="#0f0a26" opacity=".678" rx="338.6" ry="85.5"/><ellipse cx="1771.2" cy="1806" fill="#0f0a26" opacity=".686" rx="335.8" ry="84.9"/><ellipse cx="1772.4" cy="1806.1" fill="#0f0a26" opacity=".694" rx="333" ry="84.4"/><ellipse cx="1773.5" cy="1806.2" fill="#0f0a26" opacity=".703" rx="330.1" ry="83.9" transform="translate(-2.335 2.295)"/><ellipse cx="1774.7" cy="1806.3" fill="#0f0a26" opacity=".711" rx="327.3" ry="83.4" transform="translate(-2.962 2.914)"/><ellipse cx="1775.8" cy="1806.4" fill="#0f0a26" opacity=".719" rx="324.5" ry="82.8" transform="translate(-3.6 3.546)"/><ellipse cx="1777" cy="1806.5" fill="#0f0a26" opacity=".727" rx="321.7" ry="82.3" transform="matrix(1 -.00235 .00235 1 -4.25 4.19)"/><ellipse cx="1778.1" cy="1806.6" fill="#0f0a26" opacity=".736" rx="318.9" ry="81.8" transform="matrix(1 -.00272 .00272 1 -4.91 4.846)"/><ellipse cx="1779.2" cy="1806.7" fill="#0f0a26" opacity=".744" rx="316.1" ry="81.2" transform="translate(-5.585 5.517)"/><ellipse cx="1780.4" cy="1806.8" fill="#0f0a26" opacity=".752" rx="313.3" ry="80.7" transform="matrix(1 -.00348 .00348 1 -6.27 6.2)"/><ellipse cx="1781.5" cy="1806.9" fill="#0f0a26" opacity=".76" rx="310.5" ry="80.2" transform="matrix(1 -.00386 .00386 1 -6.97 6.898)"/><ellipse cx="1782.7" cy="1807" fill="#0f0a26" opacity=".769" rx="307.7" ry="79.7" transform="matrix(1 -.00426 .00426 1 -7.682 7.61)"/><ellipse cx="1783.8" cy="1807.1" fill="#0f0a26" opacity=".777" rx="304.9" ry="79.1" transform="matrix(1 -.00466 .00466 1 -8.408 8.338)"/><ellipse cx="1784.9" cy="1807.3" fill="#0f0a26" opacity=".785" rx="302.1" ry="78.6" transform="matrix(1 -.00507 .00507 1 -9.148 9.081)"/><ellipse cx="1786.1" cy="1807.4" fill="#0f0a26" opacity=".793" rx="299.3" ry="78.1" transform="translate(-9.902 9.84)"/><ellipse cx="1787.2" cy="1807.5" fill="#0f0a26" opacity=".802" rx="296.5" ry="77.5" transform="matrix(1 -.00592 .00592 1 -10.672 10.615)"/><ellipse cx="1788.4" cy="1807.6" fill="#0f0a26" opacity=".81" rx="293.7" ry="77" transform="matrix(1 -.00636 .00636 1 -11.456 11.407)"/><ellipse cx="1789.5" cy="1807.7" fill="#0f0a26" opacity=".818" rx="290.9" ry="76.5" transform="translate(-12.256 12.216)"/><ellipse cx="1790.7" cy="1807.8" fill="#0f0a26" opacity=".826" rx="288.1" ry="76" transform="matrix(1 -.00726 .00726 1 -13.073 13.043)"/><ellipse cx="1791.8" cy="1807.9" fill="#0f0a26" opacity=".835" rx="285.3" ry="75.4" transform="matrix(1 -.00772 .00772 1 -13.906 13.89)"/><ellipse cx="1792.9" cy="1808" fill="#0f0a26" opacity=".843" rx="282.5" ry="74.9" transform="matrix(1 -.0082 .0082 1 -14.756 14.754)"/><ellipse cx="1794.1" cy="1808.1" fill="#0f0a26" opacity=".851" rx="279.7" ry="74.4" transform="matrix(1 -.00868 .00868 1 -15.625 15.639)"/><ellipse cx="1795.2" cy="1808.2" fill="#0f0a26" opacity=".86" rx="276.9" ry="73.8" transform="matrix(1 -.00917 .00917 1 -16.511 16.544)"/><ellipse cx="1796.4" cy="1808.3" fill="#0f0a26" opacity=".868" rx="274.1" ry="73.3" transform="matrix(1 -.00968 .00968 1 -17.417 17.47)"/><ellipse cx="1797.5" cy="1808.4" fill="#0f0a26" opacity=".876" rx="271.3" ry="72.8" transform="matrix(.9999 -.01 .01 .9999 -17.991 18.07)"/><ellipse cx="1798.7" cy="1808.5" fill="#0f0a26" opacity=".884" rx="268.5" ry="72.3" transform="matrix(.9999 -.01072 .01072 .9999 -19.287 19.388)"/><ellipse cx="1799.8" cy="1808.6" fill="#0f0a26" opacity=".893" rx="265.7" ry="71.7" transform="matrix(.9999 -.01126 .01126 .9999 -20.253 20.382)"/><ellipse cx="1800.9" cy="1808.7" fill="#0f0a26" opacity=".901" rx="262.9" ry="71.2" transform="rotate(-.678 1800.86 1808.723) scale(.99997)"/><ellipse cx="1802.1" cy="1808.9" fill="#0f0a26" opacity=".909" rx="260.1" ry="70.7" transform="matrix(.9999 -.01238 .01238 .9999 -22.25 22.443)"/><ellipse cx="1803.2" cy="1809" fill="#0f0a26" opacity=".917" rx="257.3" ry="70.1" transform="matrix(.9999 -.01295 .01295 .9999 -23.283 23.512)"/><ellipse cx="1804.4" cy="1809.1" fill="#0f0a26" opacity=".926" rx="254.4" ry="69.6" transform="rotate(-.769 1804.595 1808.819) scale(.99999)"/><ellipse cx="1805.5" cy="1809.2" fill="#0f0a26" opacity=".934" rx="251.6" ry="69.1" transform="rotate(-.81 1805.536 1809.152)"/><ellipse cx="1806.7" cy="1809.3" fill="#0f0a26" opacity=".942" rx="248.8" ry="68.5" transform="rotate(-.85 1806.57 1809.403) scale(1.00001)"/><ellipse cx="1807.8" cy="1809.4" fill="#0f0a26" opacity=".95" rx="246" ry="68" transform="rotate(-.888 1807.684 1809.577) scale(1.00002)"/><ellipse cx="1808.9" cy="1809.5" fill="#0f0a26" opacity=".959" rx="243.2" ry="67.5" transform="rotate(-.924 1808.878 1809.663) scale(1.00003)"/><ellipse cx="1810.1" cy="1809.6" fill="#0f0a26" opacity=".967" rx="240.4" ry="67" transform="rotate(-.959 1810.142 1809.685) scale(1.00004)"/><ellipse cx="1811.2" cy="1809.7" fill="#0f0a26" opacity=".975" rx="237.6" ry="66.4" transform="rotate(-.992 1811.302 1809.454) scale(.99995)"/><ellipse cx="1812.4" cy="1809.8" fill="#0f0a26" opacity=".984" rx="234.8" ry="65.9" transform="rotate(-1.037 1813.28 1810.722)"/><ellipse cx="1813.5" cy="1809.9" fill="#0f0a26" opacity=".992" rx="232" ry="65.4" transform="matrix(.9998 -.01883 .01883 .9998 -33.757 34.467)"/><ellipse cx="1814.7" cy="1810" fill="#0f0a26" rx="229.2" ry="64.8" transform="rotate(-1.117 1814.78 1809.868) scale(.99999)"/></g><g opacity=".3"><ellipse cx="898.9" cy="1905" fill="#0f0a26" opacity="0" rx="128.7" ry="568.6" transform="rotate(-89.12 898.87 1905.04) scale(1.00002)"/><ellipse cx="900" cy="1905.1" fill="#0f0a26" opacity=".008" rx="128.2" ry="565.8" transform="rotate(-89.126 900.018 1905.151) scale(1.00002)"/><ellipse cx="901.2" cy="1905.3" fill="#0f0a26" opacity=".017" rx="127.7" ry="563" transform="matrix(.01513 -.9999 .9999 .01513 -1017.513 2777.47)"/><ellipse cx="902.3" cy="1905.4" fill="#0f0a26" opacity=".025" rx="127.2" ry="560.2" transform="matrix(.01502 -.9999 .9999 .01502 -1016.394 2778.938)"/><ellipse cx="903.4" cy="1905.5" fill="#0f0a26" opacity=".033" rx="126.6" ry="557.4" transform="rotate(-89.146 903.443 1905.462) scale(1.00001)"/><ellipse cx="904.6" cy="1905.6" fill="#0f0a26" opacity=".041" rx="126.1" ry="554.6" transform="rotate(-89.153 904.585 1905.571) scale(1.00001)"/><ellipse cx="905.7" cy="1905.7" fill="#0f0a26" opacity=".05" rx="125.6" ry="551.8" transform="rotate(-89.16 905.726 1905.68) scale(1.00001)"/><ellipse cx="906.9" cy="1905.8" fill="#0f0a26" opacity=".058" rx="125.1" ry="549" transform="rotate(-89.166 906.865 1905.772)"/><ellipse cx="908" cy="1905.9" fill="#0f0a26" opacity=".066" rx="124.5" ry="546.1" transform="rotate(-89.173 908.01 1905.882)"/><ellipse cx="909.2" cy="1906" fill="#0f0a26" opacity=".074" rx="124" ry="543.3" transform="rotate(-89.18 909.157 1905.993)"/><ellipse cx="910.3" cy="1906.1" fill="#0f0a26" opacity=".083" rx="123.5" ry="540.5" transform="rotate(-89.187 910.299 1906.102)"/><ellipse cx="911.4" cy="1906.2" fill="#0f0a26" opacity=".091" rx="122.9" ry="537.7" transform="rotate(-89.194 911.44 1906.211)"/><ellipse cx="912.6" cy="1906.3" fill="#0f0a26" opacity=".099" rx="122.4" ry="534.9" transform="rotate(-89.202 912.587 1906.322)"/><ellipse cx="913.7" cy="1906.4" fill="#0f0a26" opacity=".107" rx="121.9" ry="532.1" transform="rotate(-89.209 913.731 1906.432)"/><ellipse cx="914.9" cy="1906.5" fill="#0f0a26" opacity=".116" rx="121.4" ry="529.3" transform="rotate(-89.216 914.875 1906.542)"/><ellipse cx="916" cy="1906.6" fill="#0f0a26" opacity=".124" rx="120.8" ry="526.5" transform="rotate(-89.224 916.013 1906.633) scale(.99999)"/><ellipse cx="917.2" cy="1906.7" fill="#0f0a26" opacity=".132" rx="120.3" ry="523.7" transform="rotate(-89.231 917.155 1906.742) scale(.99999)"/><ellipse cx="918.3" cy="1906.8" fill="#0f0a26" opacity=".141" rx="119.8" ry="520.9" transform="rotate(-89.239 918.297 1906.851) scale(.99999)"/><ellipse cx="919.4" cy="1907" fill="#0f0a26" opacity=".149" rx="119.3" ry="518.1" transform="matrix(.01315 -.9999 .9999 .01315 -999.441 2801.239)"/><ellipse cx="920.6" cy="1907.1" fill="#0f0a26" opacity=".157" rx="118.7" ry="515.3" transform="scale(.99998) rotate(-89.255 920.59 1907.09)"/><ellipse cx="921.7" cy="1907.2" fill="#0f0a26" opacity=".165" rx="118.2" ry="512.5" transform="matrix(.01288 -.9999 .9999 .01288 -997.154 2804.258)"/><ellipse cx="922.9" cy="1907.3" fill="#0f0a26" opacity=".174" rx="117.7" ry="509.7" transform="rotate(-89.27 922.87 1907.274) scale(.99998)"/><ellipse cx="924" cy="1907.4" fill="#0f0a26" opacity=".182" rx="117.1" ry="506.9" transform="rotate(-89.278 924.011 1907.383) scale(.99998)"/><ellipse cx="925.2" cy="1907.5" fill="#0f0a26" opacity=".19" rx="116.6" ry="504.1" transform="rotate(-89.286 925.153 1907.492) scale(.99998)"/><ellipse cx="926.3" cy="1907.6" fill="#0f0a26" opacity=".198" rx="116.1" ry="501.3" transform="rotate(-89.295 926.301 1907.603) scale(.99998)"/><ellipse cx="927.4" cy="1907.7" fill="#0f0a26" opacity=".207" rx="115.6" ry="498.5" transform="matrix(.01217 -.9999 .9999 .01217 -991.405 2811.86)"/><ellipse cx="928.6" cy="1907.8" fill="#0f0a26" opacity=".215" rx="115" ry="495.6" transform="rotate(-89.311 928.583 1907.805) scale(.99997)"/><ellipse cx="929.7" cy="1907.9" fill="#0f0a26" opacity=".223" rx="114.5" ry="492.8" transform="rotate(-89.32 929.725 1907.914) scale(.99997)"/><ellipse cx="930.9" cy="1908" fill="#0f0a26" opacity=".231" rx="114" ry="490" transform="rotate(-89.328 930.867 1908.023) scale(.99997)"/><ellipse cx="932" cy="1908.1" fill="#0f0a26" opacity=".24" rx="113.4" ry="487.2" transform="matrix(.01157 -.9999 .9999 .01157 -986.772 2818.001)"/><ellipse cx="933.2" cy="1908.2" fill="#0f0a26" opacity=".248" rx="112.9" ry="484.4" transform="rotate(-89.346 933.158 1908.243) scale(.99997)"/><ellipse cx="934.3" cy="1908.3" fill="#0f0a26" opacity=".256" rx="112.4" ry="481.6" transform="rotate(-89.355 934.293 1908.334) scale(.99996)"/><ellipse cx="935.4" cy="1908.4" fill="#0f0a26" opacity=".265" rx="111.9" ry="478.8" transform="rotate(-89.364 935.44 1908.445) scale(.99996)"/><ellipse cx="936.6" cy="1908.6" fill="#0f0a26" opacity=".273" rx="111.3" ry="476" transform="rotate(-89.373 936.581 1908.554) scale(.99996)"/><ellipse cx="937.7" cy="1908.7" fill="#0f0a26" opacity=".281" rx="110.8" ry="473.2" transform="rotate(-89.382 937.723 1908.663) scale(.99996)"/><ellipse cx="938.9" cy="1908.8" fill="#0f0a26" opacity=".289" rx="110.3" ry="470.4" transform="scale(.99996) rotate(-89.392 938.9 1908.849)"/><ellipse cx="940" cy="1908.9" fill="#0f0a26" opacity=".297" rx="109.8" ry="467.6" transform="rotate(-89.401 940.005 1908.865) scale(.99995)"/><ellipse cx="941.2" cy="1909" fill="#0f0a26" opacity=".306" rx="109.2" ry="464.8" transform="rotate(-89.411 941.15 1908.975) scale(.99995)"/><ellipse cx="942.3" cy="1909.1" fill="#0f0a26" opacity=".314" rx="108.7" ry="462" transform="rotate(-89.421 942.296 1909.085) scale(.99995)"/><ellipse cx="943.4" cy="1909.2" fill="#0f0a26" opacity=".322" rx="108.2" ry="459.2" transform="matrix(.00994 -1 1 .00994 -975.039 2833.607)"/><ellipse cx="944.6" cy="1909.3" fill="#0f0a26" opacity=".331" rx="107.6" ry="456.4" transform="matrix(.00976 -1 1 .00976 -973.853 2835.19)"/><ellipse cx="945.7" cy="1909.4" fill="#0f0a26" opacity=".339" rx="107.1" ry="453.6" transform="matrix(.00959 -1 1 .00959 -972.664 2836.777)"/><ellipse cx="946.9" cy="1909.5" fill="#0f0a26" opacity=".347" rx="106.6" ry="450.8" transform="matrix(.00941 -1 1 .00941 -971.473 2838.368)"/><ellipse cx="948" cy="1909.6" fill="#0f0a26" opacity=".355" rx="106.1" ry="448" transform="matrix(.00923 -1 1 .00923 -970.279 2839.964)"/><ellipse cx="949.2" cy="1909.7" fill="#0f0a26" opacity=".364" rx="105.5" ry="445.1" transform="matrix(.00905 -1 1 .00905 -969.082 2841.564)"/><ellipse cx="950.3" cy="1909.8" fill="#0f0a26" opacity=".372" rx="105" ry="442.3" transform="matrix(.00886 -1 1 .00886 -967.883 2843.169)"/><ellipse cx="951.4" cy="1909.9" fill="#0f0a26" opacity=".38" rx="104.5" ry="439.5" transform="matrix(.00867 -1 1 .00867 -966.681 2844.778)"/><ellipse cx="952.6" cy="1910" fill="#0f0a26" opacity=".388" rx="103.9" ry="436.7" transform="matrix(.00848 -1 1 .00848 -965.476 2846.393)"/><ellipse cx="953.7" cy="1910.2" fill="#0f0a26" opacity=".397" rx="103.4" ry="433.9" transform="matrix(.00829 -1 1 .00829 -964.268 2848.012)"/><ellipse cx="954.9" cy="1910.3" fill="#0f0a26" opacity=".405" rx="102.9" ry="431.1" transform="matrix(.0081 -1 1 .0081 -963.058 2849.637)"/><ellipse cx="956" cy="1910.4" fill="#0f0a26" opacity=".413" rx="102.4" ry="428.3" transform="rotate(-89.547 955.988 1910.31)"/><ellipse cx="957.1" cy="1910.5" fill="#0f0a26" opacity=".421" rx="101.8" ry="425.5" transform="matrix(.00769 -1 1 .00769 -960.627 2852.9)"/><ellipse cx="958.3" cy="1910.6" fill="#0f0a26" opacity=".43" rx="101.3" ry="422.7" transform="matrix(.00749 -1 1 .00749 -959.407 2854.54)"/><ellipse cx="959.4" cy="1910.7" fill="#0f0a26" opacity=".438" rx="100.8" ry="419.9" transform="matrix(.00728 -1 1 .00728 -958.183 2856.186)"/><ellipse cx="960.6" cy="1910.8" fill="#0f0a26" opacity=".446" rx="100.3" ry="417.1" transform="matrix(.00707 -1 1 .00707 -956.957 2857.837)"/><ellipse cx="961.7" cy="1910.9" fill="#0f0a26" opacity=".455" rx="99.7" ry="414.3" transform="matrix(.00686 -1 1 .00686 -955.727 2859.493)"/><ellipse cx="962.9" cy="1911" fill="#0f0a26" opacity=".463" rx="99.2" ry="411.5" transform="matrix(.00664 -1 1 .00664 -954.494 2861.156)"/><ellipse cx="964" cy="1911.1" fill="#0f0a26" opacity=".471" rx="98.7" ry="408.7" transform="matrix(.00642 -1 1 .00642 -953.257 2862.824)"/><ellipse cx="965.1" cy="1911.2" fill="#0f0a26" opacity=".479" rx="98.1" ry="405.9" transform="rotate(-89.645 965.158 1911.19)"/><ellipse cx="966.3" cy="1911.3" fill="#0f0a26" opacity=".488" rx="97.6" ry="403.1" transform="matrix(.00597 -1 1 .00597 -950.772 2866.179)"/><ellipse cx="967.4" cy="1911.4" fill="#0f0a26" opacity=".496" rx="97.1" ry="400.3" transform="matrix(.00575 -1 1 .00575 -949.524 2867.866)"/><ellipse cx="968.6" cy="1911.5" fill="#0f0a26" opacity=".504" rx="96.6" ry="397.5" transform="matrix(.00551 -1 1 .00551 -948.273 2869.56)"/><ellipse cx="969.7" cy="1911.6" fill="#0f0a26" opacity=".512" rx="96" ry="394.7" transform="matrix(.00528 -1 1 .00528 -947.017 2871.259)"/><ellipse cx="970.9" cy="1911.8" fill="#0f0a26" opacity=".521" rx="95.5" ry="391.9" transform="matrix(.00504 -1 1 .00504 -945.757 2872.966)"/><ellipse cx="972" cy="1911.9" fill="#0f0a26" opacity=".529" rx="95" ry="389" transform="rotate(-89.725 972.014 1911.842)"/><ellipse cx="973.1" cy="1912" fill="#0f0a26" opacity=".537" rx="94.4" ry="386.2" transform="matrix(.00455 -1 1 .00455 -943.225 2876.4)"/><ellipse cx="974.3" cy="1912.1" fill="#0f0a26" opacity=".545" rx="93.9" ry="383.4" transform="rotate(-89.754 974.293 1912.056)"/><ellipse cx="975.4" cy="1912.2" fill="#0f0a26" opacity=".554" rx="93.4" ry="380.6" transform="matrix(.00405 -1 1 .00405 -940.677 2879.862)"/><ellipse cx="976.6" cy="1912.3" fill="#0f0a26" opacity=".562" rx="92.9" ry="377.8" transform="rotate(-89.783 976.568 1912.27)"/><ellipse cx="977.7" cy="1912.4" fill="#0f0a26" opacity=".57" rx="92.3" ry="375" transform="rotate(-89.798 977.712 1912.378)"/><ellipse cx="978.9" cy="1912.5" fill="#0f0a26" opacity=".579" rx="91.8" ry="372.2" transform="rotate(-89.813 978.855 1912.486)"/><ellipse cx="980" cy="1912.6" fill="#0f0a26" opacity=".587" rx="91.3" ry="369.4" transform="rotate(-89.83 980.017 1912.6)"/><ellipse cx="981.1" cy="1912.7" fill="#0f0a26" opacity=".595" rx="90.8" ry="366.6" transform="rotate(-89.844 981.142 1912.702)"/><ellipse cx="982.3" cy="1912.8" fill="#0f0a26" opacity=".603" rx="90.2" ry="363.8" transform="rotate(-89.86 982.286 1912.81)"/><ellipse cx="983.4" cy="1912.9" fill="#0f0a26" opacity=".612" rx="89.7" ry="361" transform="rotate(-89.876 983.433 1912.92)"/><ellipse cx="984.6" cy="1913" fill="#0f0a26" opacity=".62" rx="89.2" ry="358.2" transform="rotate(-89.893 984.575 1913.027)"/><ellipse cx="985.7" cy="1913.1" fill="#0f0a26" opacity=".628" rx="88.6" ry="355.4" transform="rotate(-89.91 985.717 1913.134)"/><ellipse cx="986.9" cy="1913.2" fill="#0f0a26" opacity=".636" rx="88.1" ry="352.6" transform="rotate(-89.927 986.86 1913.241)"/><ellipse cx="988" cy="1913.3" fill="#0f0a26" opacity=".645" rx="349.8" ry="87.6"/><ellipse cx="989.1" cy="1913.5" fill="#0f0a26" opacity=".653" rx="347" ry="87.1"/><ellipse cx="990.3" cy="1913.6" fill="#0f0a26" opacity=".661" rx="344.2" ry="86.5"/><ellipse cx="991.4" cy="1913.7" fill="#0f0a26" opacity=".669" rx="341.4" ry="86"/><ellipse cx="992.6" cy="1913.8" fill="#0f0a26" opacity=".678" rx="338.6" ry="85.5"/><ellipse cx="993.7" cy="1913.9" fill="#0f0a26" opacity=".686" rx="335.8" ry="84.9"/><ellipse cx="994.9" cy="1914" fill="#0f0a26" opacity=".694" rx="333" ry="84.4"/><ellipse cx="996" cy="1914.1" fill="#0f0a26" opacity=".703" rx="330.1" ry="83.9" transform="translate(-2.475 1.29)"/><ellipse cx="997.1" cy="1914.2" fill="#0f0a26" opacity=".711" rx="327.3" ry="83.4" transform="translate(-3.14 1.639)"/><ellipse cx="998.3" cy="1914.3" fill="#0f0a26" opacity=".719" rx="324.5" ry="82.8" transform="translate(-3.816 1.995)"/><ellipse cx="999.4" cy="1914.4" fill="#0f0a26" opacity=".727" rx="321.7" ry="82.3" transform="matrix(1 -.00235 .00235 1 -4.506 2.359)"/><ellipse cx="1000.6" cy="1914.5" fill="#0f0a26" opacity=".736" rx="318.9" ry="81.8" transform="matrix(1 -.00272 .00272 1 -5.207 2.73)"/><ellipse cx="1001.7" cy="1914.6" fill="#0f0a26" opacity=".744" rx="316.1" ry="81.2" transform="translate(-5.922 3.11)"/><ellipse cx="1002.9" cy="1914.7" fill="#0f0a26" opacity=".752" rx="313.3" ry="80.7" transform="matrix(1 -.00348 .00348 1 -6.65 3.498)"/><ellipse cx="1004" cy="1914.8" fill="#0f0a26" opacity=".76" rx="310.5" ry="80.2" transform="matrix(1 -.00386 .00386 1 -7.393 3.894)"/><ellipse cx="1005.1" cy="1914.9" fill="#0f0a26" opacity=".769" rx="307.7" ry="79.7" transform="matrix(1 -.00426 .00426 1 -8.149 4.3)"/><ellipse cx="1006.3" cy="1915.1" fill="#0f0a26" opacity=".777" rx="304.9" ry="79.1" transform="matrix(1 -.00466 .00466 1 -8.92 4.713)"/><ellipse cx="1007.4" cy="1915.2" fill="#0f0a26" opacity=".785" rx="302.1" ry="78.6" transform="matrix(1 -.00507 .00507 1 -9.706 5.137)"/><ellipse cx="1008.6" cy="1915.3" fill="#0f0a26" opacity=".793" rx="299.3" ry="78.1" transform="translate(-10.507 5.57)"/><ellipse cx="1009.7" cy="1915.4" fill="#0f0a26" opacity=".802" rx="296.5" ry="77.5" transform="matrix(1 -.00592 .00592 1 -11.324 6.013)"/><ellipse cx="1010.9" cy="1915.5" fill="#0f0a26" opacity=".81" rx="293.7" ry="77" transform="matrix(1 -.00636 .00636 1 -12.158 6.466)"/><ellipse cx="1012" cy="1915.6" fill="#0f0a26" opacity=".818" rx="290.9" ry="76.5" transform="translate(-13.008 6.929)"/><ellipse cx="1013.1" cy="1915.7" fill="#0f0a26" opacity=".826" rx="288.1" ry="76" transform="matrix(1 -.00726 .00726 1 -13.876 7.403)"/><ellipse cx="1014.3" cy="1915.8" fill="#0f0a26" opacity=".835" rx="285.3" ry="75.4" transform="matrix(1 -.00772 .00772 1 -14.762 7.889)"/><ellipse cx="1015.4" cy="1915.9" fill="#0f0a26" opacity=".843" rx="282.5" ry="74.9" transform="matrix(1 -.0082 .0082 1 -15.667 8.386)"/><ellipse cx="1016.6" cy="1916" fill="#0f0a26" opacity=".851" rx="279.7" ry="74.4" transform="matrix(1 -.00868 .00868 1 -16.59 8.895)"/><ellipse cx="1017.7" cy="1916.1" fill="#0f0a26" opacity=".86" rx="276.9" ry="73.8" transform="matrix(1 -.00917 .00917 1 -17.534 9.416)"/><ellipse cx="1018.9" cy="1916.2" fill="#0f0a26" opacity=".868" rx="274.1" ry="73.3" transform="matrix(1 -.00968 .00968 1 -18.497 9.95)"/><ellipse cx="1020" cy="1916.3" fill="#0f0a26" opacity=".876" rx="271.3" ry="72.8" transform="matrix(.9999 -.01 .01 .9999 -19.11 10.3)"/><ellipse cx="1021.1" cy="1916.4" fill="#0f0a26" opacity=".884" rx="268.5" ry="72.3" transform="matrix(.9999 -.01072 .01072 .9999 -20.488 11.058)"/><ellipse cx="1022.3" cy="1916.5" fill="#0f0a26" opacity=".893" rx="265.7" ry="71.7" transform="matrix(.9999 -.01126 .01126 .9999 -21.517 11.633)"/><ellipse cx="1023.4" cy="1916.7" fill="#0f0a26" opacity=".901" rx="262.9" ry="71.2" transform="rotate(-.678 1023.355 1916.612) scale(.99997)"/><ellipse cx="1024.6" cy="1916.8" fill="#0f0a26" opacity=".909" rx="260.1" ry="70.7" transform="matrix(.9999 -.01238 .01238 .9999 -23.645 12.828)"/><ellipse cx="1025.7" cy="1916.9" fill="#0f0a26" opacity=".917" rx="257.3" ry="70.1" transform="matrix(.9999 -.01295 .01295 .9999 -24.746 13.448)"/><ellipse cx="1026.9" cy="1917" fill="#0f0a26" opacity=".926" rx="254.4" ry="69.6" transform="rotate(-.769 1027.089 1916.826) scale(.99999)"/><ellipse cx="1028" cy="1917.1" fill="#0f0a26" opacity=".934" rx="251.6" ry="69.1" transform="rotate(-.81 1028.016 1917.072)"/><ellipse cx="1029.1" cy="1917.2" fill="#0f0a26" opacity=".942" rx="248.8" ry="68.5" transform="rotate(-.85 1029.034 1917.265) scale(1.00001)"/><ellipse cx="1030.3" cy="1917.3" fill="#0f0a26" opacity=".95" rx="246" ry="68" transform="rotate(-.81 1033.008 1916.773)"/><ellipse cx="1031.4" cy="1917.4" fill="#0f0a26" opacity=".959" rx="243.2" ry="67.5" transform="rotate(-.924 1031.324 1917.525) scale(1.00003)"/><ellipse cx="1032.6" cy="1917.5" fill="#0f0a26" opacity=".967" rx="240.4" ry="67" transform="rotate(-.959 1032.59 1917.589) scale(1.00004)"/><ellipse cx="1033.7" cy="1917.6" fill="#0f0a26" opacity=".975" rx="237.6" ry="66.4" transform="rotate(-.992 1033.828 1917.424) scale(.99995)"/><ellipse cx="1034.9" cy="1917.7" fill="#0f0a26" opacity=".984" rx="234.8" ry="65.9" transform="rotate(-1.037 1035.397 1918.653)"/><ellipse cx="1036" cy="1917.8" fill="#0f0a26" opacity=".992" rx="232" ry="65.4" transform="matrix(.9998 -.01883 .01883 .9998 -35.927 19.847)"/><ellipse cx="1037.1" cy="1917.9" fill="#0f0a26" rx="229.2" ry="64.8" transform="rotate(-1.117 1037.273 1917.834) scale(.99999)"/></g><linearGradient id="a" x1="-9687.741" x2="-9355.122" y1="969.995" y2="1332.852" gradientTransform="matrix(-1 0 0 1 -7550.29 0)" gradientUnits="userSpaceOnUse"><stop offset="0" stop-color="#7680b7"/><stop offset="1" stop-color="#47559f"/></linearGradient><path fill="url(#a)" d="M1263.7,1127v42.5c0,25.8,14.1,47.5,34.3,59l611.2,472.1c-13.8-12.3-22.7-30.2-22.7-50.7v-42.5
			c0-45.5,26.7-86.3,67.3-104.8c4.6-2.1,9.3-3.9,14.2-5.4l635.6-194.7l-622.8-480.4l-635.7,194.6c-6.8,2.1-13.3,4.8-19.4,8
			C1288.1,1044.3,1263.7,1083.5,1263.7,1127z"/><linearGradient id="b" x1="-10153.907" x2="-9436.719" y1="1510.217" y2="1510.217" gradientTransform="matrix(-1 0 0 1 -7550.29 0)" gradientUnits="userSpaceOnUse"><stop offset="0" stop-color="#7680b7"/><stop offset="1" stop-color="#47559f"/></linearGradient><path fill="url(#b)" d="M1886.4,1607.4v42.5c0,20.5,9,38.5,22.7,50.7l0.6,0.5c16.8,14.6,40.8,21,64.5,13.7l629.4-192.8v-219.6
			L1968,1497.2C1919.5,1512,1886.4,1556.8,1886.4,1607.4z"/><linearGradient id="c" x1="-9666.659" x2="-10028.303" y1="1565.53" y2="1637.192" gradientTransform="matrix(-1 0 0 1 -7550.29 0)" gradientUnits="userSpaceOnUse"><stop offset="0" stop-color="#171e60"/><stop offset="1" stop-color="#2c3c91"/></linearGradient><path fill="url(#c)" d="M1903.3,1637.9v12c0,14.6,6,28.1,16.8,37.9l0.3,0.2c9.8,8.5,21.7,13,33.9,13c5,0,10.1-0.8,15-2.3
			l634.3-193.3v-12l-634.3,193.3c-4.9,1.5-10,2.3-15,2.3c-12.2,0-24.1-4.5-33.9-13l-0.3-0.2
			C1909.3,1666,1903.3,1652.6,1903.3,1637.9z"/><linearGradient id="d" x1="-9485.332" x2="-10139.327" y1="1437.466" y2="1567.059" gradientTransform="matrix(-1 0 0 1 -7550.29 0)" gradientUnits="userSpaceOnUse"><stop offset="0" stop-color="#f9f9fc"/><stop offset="1" stop-color="#d7dcee"/></linearGradient><path fill="url(#d)" d="M1903.3,1607.4v30.5c0,14.6,6,28.1,16.8,37.9l0.3,0.2c9.8,8.5,21.7,13,33.9,13c5,0,10.1-0.8,15-2.3
			l634.3-193.3v-172.3L1973,1513.4C1931.3,1526.1,1903.3,1563.9,1903.3,1607.4z"/><linearGradient id="e" x1="-9113.942" x2="-9204.657" y1="1422.866" y2="1307.411" gradientTransform="matrix(-1 0 0 1 -7550.29 0)" gradientUnits="userSpaceOnUse"><stop offset="0" stop-color="#171e60"/><stop offset="1" stop-color="#2c3c91"/></linearGradient><path fill="url(#e)" d="M1263.7,1127v42.5c0,25.8,14.1,47.5,34.3,59l611.2,472.1c-13.8-12.3-22.7-30.2-22.7-50.7v-42.5
			c0-45.5,26.7-86.3,67.3-104.8l-628-477.9C1288.1,1044.3,1263.7,1083.5,1263.7,1127z"/><path fill="none" stroke="#24317f" stroke-miterlimit="10" stroke-width="5.63" d="M1914.5,940l-360.3,101.8c25.7,19.4,18.1,59.9-12.9,68.7l343.7,259.8c42-12.4,87.3-4.2,122.2,22.2
			l332.5-98.3c-28.4-21.8-20-66.5,14.2-76.7L2018.6,960C1982.7,970.1,1944.1,962.7,1914.5,940z"/><linearGradient id="f" x1="-9618.621" x2="-9575.529" y1="1619.21" y2="1666.22" gradientTransform="matrix(-1 0 0 1 -7550.29 0)" gradientUnits="userSpaceOnUse"><stop offset="0" stop-color="#f58b21"/><stop offset="1" stop-color="#f5b419"/></linearGradient><path fill="url(#f)" d="M2033.8,1721c-1.5-64.7-61.7-114.8-61.7-114.8l73.4-20.3c0,0,49.9,44.5,55.7,111.9c0.1,1.1,0.2,2.2,0.2,3.4
			l-41.4-47.7L2033.8,1721z"/><linearGradient id="g" x1="1946.655" x2="1496.265" y1="1907.835" y2="1583.845" gradientUnits="userSpaceOnUse"><stop offset="0" stop-color="#f58b21"/><stop offset="1" stop-color="#f5b419"/></linearGradient><path fill="url(#g)" d="M1968.1,1643.1v182L1261,1684.4c-43.7-8.7-75.2-47-75.2-91.6v-18.9c0-9.5,2-18.5,5.3-26.7h-0.1l2.4-5.3
			c13.8-27.3,44.7-44,77.2-37.6L1968.1,1643.1z"/><linearGradient id="h" x1="1331.164" x2="1808.841" y1="1432.457" y2="1953.56" gradientUnits="userSpaceOnUse"><stop offset="0" stop-color="#f58b21"/><stop offset="1" stop-color="#f5961f"/></linearGradient><path fill="url(#h)" d="M1968.1,1797.1v10.4l-703.8-139.7c-35.7-7.1-61.6-38.6-61.6-75v-18.9c0-6.9,1.3-13.7,4.1-20.4l0.5-1
			l1.5-3.3c3.2-6.1,7.4-11.4,12.4-15.8c-1.6,2.2-3.1,4.5-4.3,6.9l-1.5,3.3l-0.4,1c-2.7,6.7-4.1,13.6-4.1,20.4v18.9
			c0,36.4,25.9,68,61.6,75L1968.1,1797.1z"/><linearGradient id="i" x1="1369.725" x2="1842.201" y1="1397.138" y2="1912.566" gradientUnits="userSpaceOnUse"><stop offset="0" stop-color="#f9f9fc"/><stop offset="1" stop-color="#d7dcee"/></linearGradient><path fill="url(#i)" d="M1968.1,1660v137.1L1272.3,1659c-35.7-7.1-61.6-38.7-61.6-75v-18.9c0-6.9,1.4-13.7,4.1-20.4l0.4-1l1.5-3.3
			c1.2-2.4,2.7-4.7,4.3-6.9c9.7-8.6,22.4-13.6,35.5-13.6c3.5,0,7.2,0.4,10.7,1.1L1968.1,1660z"/><linearGradient id="j" x1="1976.101" x2="2266.032" y1="1235.746" y2="1552.034" gradientUnits="userSpaceOnUse"><stop offset="0" stop-color="#f58b21"/><stop offset="1" stop-color="#f5961f"/></linearGradient><polygon fill="url(#j)" points="2274 962.7 2274 1144.6 1968.1 1825.1 1968.1 1643.1 2198.9 1129.7"/><linearGradient id="k" x1="1986.673" x2="2255.46" y1="1250.936" y2="1544.158" gradientUnits="userSpaceOnUse"><stop offset="0" stop-color="#f9f9fc"/><stop offset="1" stop-color="#d7dcee"/></linearGradient><polygon fill="url(#k)" points="1968.1 1660 2274 987.6 2274 1129.1 1968.1 1807.5"/><linearGradient id="l" x1="1652.657" x2="1814.715" y1="978.072" y2="1526.345" gradientUnits="userSpaceOnUse"><stop offset="0" stop-color="#f58b21"/><stop offset="1" stop-color="#f5b419"/></linearGradient><path fill="url(#l)" d="M2274,962.7l-75.1,167l-230.8,513.4l-662.9-131.9l-34.7-6.9c-32.5-6.5-63.3,10.2-77.2,37.6l302.7-673.1
			l0.3-0.8c11.9-31.1,45-51.1,80-44.1l21.5,4.3L2274,962.7z"/><linearGradient id="m" x1="1342.533" x2="1448.292" y1="1005.383" y2="1363.185" gradientUnits="userSpaceOnUse"><stop offset="0" stop-color="#f58b21"/><stop offset="1" stop-color="#f5961f"/></linearGradient><path fill="url(#m)" d="M1597.9,828.2l-292.6,683.1l-34.7-6.9c-32.5-6.5-63.3,10.2-77.2,37.6l302.7-673.1l0.3-0.8
			c11.9-31.1,45-51.1,80-44.1L1597.9,828.2z"/><g><linearGradient id="n" x1="1492.703" x2="1825.322" y1="736.441" y2="1099.299" gradientUnits="userSpaceOnUse"><stop offset="0" stop-color="#7680b7"/><stop offset="1" stop-color="#47559f"/></linearGradient><path fill="url(#n)" d="M2366.5,893.5V936c0,25.8-14.1,47.5-34.3,59L1721,1467.1c13.8-12.3,22.7-30.2,22.7-50.7v-42.5
			c0-45.5-26.7-86.3-67.3-104.8c-4.6-2.1-9.3-3.9-14.2-5.4L1026.5,1069l622.8-480.4L2285,783.2c6.8,2.1,13.3,4.8,19.4,8
			C2342.1,810.7,2366.5,849.9,2366.5,893.5z"/><linearGradient id="o" x1="1026.536" x2="1743.726" y1="1276.663" y2="1276.663" gradientUnits="userSpaceOnUse"><stop offset="0" stop-color="#7680b7"/><stop offset="1" stop-color="#47559f"/></linearGradient><path fill="url(#o)" d="M1743.7,1373.9v42.5c0,20.5-9,38.5-22.7,50.7l-0.6,0.5c-16.8,14.6-40.8,21-64.5,13.7l-629.4-192.8V1069
			l635.6,194.7C1710.6,1278.4,1743.7,1323.2,1743.7,1373.9z"/><linearGradient id="p" x1="1513.785" x2="1152.141" y1="1331.976" y2="1403.638" gradientUnits="userSpaceOnUse"><stop offset="0" stop-color="#171e60"/><stop offset="1" stop-color="#2c3c91"/></linearGradient><path fill="url(#p)" d="M1726.8,1404.4v12c0,14.6-6,28.1-16.8,37.9l-0.3,0.2c-9.8,8.5-21.7,13-33.9,13c-5,0-10.1-0.8-15-2.3
			l-634.3-193.3v-12l634.3,193.3c4.9,1.5,10,2.3,15,2.3c12.2,0,24.1-4.5,33.9-13l0.3-0.2C1720.9,1432.5,1726.8,1419,1726.8,1404.4z"/><linearGradient id="q" x1="1695.112" x2="1041.117" y1="1203.912" y2="1333.505" gradientUnits="userSpaceOnUse"><stop offset="0" stop-color="#f9f9fc"/><stop offset="1" stop-color="#d7dcee"/></linearGradient><path fill="url(#q)" d="M1726.8,1373.9v30.5c0,14.6-6,28.1-16.8,37.9l-0.3,0.2c-9.8,8.5-21.7,13-33.9,13c-5,0-10.1-0.8-15-2.3
			l-634.3-193.3v-172.3l630.7,192.1C1698.9,1292.5,1726.8,1330.3,1726.8,1373.9z"/><linearGradient id="r" x1="2066.501" x2="1975.787" y1="1189.312" y2="1073.857" gradientUnits="userSpaceOnUse"><stop offset="0" stop-color="#171e60"/><stop offset="1" stop-color="#2c3c91"/></linearGradient><path fill="url(#r)" d="M2366.5,893.5V936c0,25.8-14.1,47.5-34.3,59L1721,1467.1c13.8-12.3,22.7-30.2,22.7-50.7v-42.5
			c0-45.5-26.7-86.3-67.3-104.8l628-477.9C2342.1,810.7,2366.5,849.9,2366.5,893.5z"/><path fill="none" stroke="#24317f" stroke-miterlimit="10" stroke-width="5.63" d="M1715.6,706.4l360.3,101.8c-25.7,19.4-18.1,59.9,12.9,68.7l-343.7,259.8c-42-12.4-87.3-4.2-122.2,22.2
			l-332.5-98.3c28.4-21.8,20-66.5-14.2-76.7l335.3-257.5C1647.4,736.6,1686,729.2,1715.6,706.4z"/><linearGradient id="s" x1="1561.822" x2="1604.915" y1="1385.656" y2="1432.666" gradientUnits="userSpaceOnUse"><stop offset="0" stop-color="#f58b21"/><stop offset="1" stop-color="#f5b419"/></linearGradient><path fill="url(#s)" d="M1596.4,1487.5c1.5-64.7,61.7-114.8,61.7-114.8l-73.4-20.3c0,0-49.9,44.5-55.7,111.9
			c-0.1,1.1-0.2,2.2-0.2,3.4l41.4-47.7L1596.4,1487.5z"/></g><g><linearGradient id="t" x1="1037.428" x2="949.007" y1="794.254" y2="1496.427" gradientUnits="userSpaceOnUse"><stop offset="0" stop-color="#b7bddc"/><stop offset="1" stop-color="#d7dcee"/></linearGradient><polygon fill="url(#t)" points="595.8 677.8 1392.7 687 1447.2 749.9 1353.9 1905 498.4 1830.8"/><linearGradient id="u" x1="1502.747" x2="748.22" y1="1647.895" y2="1105.122" gradientUnits="userSpaceOnUse"><stop offset="0" stop-color="#f9f9fc"/><stop offset="1" stop-color="#d7dcee"/></linearGradient><polygon fill="url(#u)" points="541.2 614.8 1392.7 687 1299.3 1842.1 443.9 1767.9"/><linearGradient id="v" x1="1257.025" x2="793.236" y1="2094.11" y2="1760.481" gradientUnits="userSpaceOnUse"><stop offset="0" stop-color="#b7bddc"/><stop offset="1" stop-color="#d7dcee"/></linearGradient><polygon fill="url(#v)" points="1353.9 1905 1299.3 1842.1 443.9 1767.9 498.4 1830.8"/><line x1="547.1" x2="1347.1" y1="730.7" y2="800.3" fill="none" stroke="#24317f" stroke-miterlimit="10" stroke-width="2.815"/><line x1="547.1" x2="1347.1" y1="745.3" y2="814.8" fill="none" stroke="#24317f" stroke-miterlimit="10" stroke-width="2.815"/><line x1="542.1" x2="1342.1" y1="823.1" y2="893.9" fill="none" stroke="#24317f" stroke-miterlimit="10" stroke-width="2.815"/><line x1="537.1" x2="1337.1" y1="900.9" y2="973" fill="none" stroke="#24317f" stroke-miterlimit="10" stroke-width="2.815"/><line x1="532.1" x2="1332.1" y1="978.7" y2="1052.1" fill="none" stroke="#24317f" stroke-miterlimit="10" stroke-width="2.815"/><line x1="527.1" x2="1327.1" y1="1056.5" y2="1131.1" fill="none" stroke="#24317f" stroke-miterlimit="10" stroke-width="2.815"/><line x1="522.1" x2="1322" y1="1134.4" y2="1210.2" fill="none" stroke="#24317f" stroke-miterlimit="10" stroke-width="2.815"/><line x1="517.1" x2="1317" y1="1212.2" y2="1289.3" fill="none" stroke="#24317f" stroke-miterlimit="10" stroke-width="2.815"/><line x1="512.1" x2="1312" y1="1290" y2="1368.4" fill="none" stroke="#24317f" stroke-miterlimit="10" stroke-width="2.815"/><line x1="507.1" x2="1307" y1="1367.8" y2="1447.4" fill="none" stroke="#24317f" stroke-miterlimit="10" stroke-width="2.815"/><line x1="502" x2="1302" y1="1445.6" y2="1526.5" fill="none" stroke="#24317f" stroke-miterlimit="10" stroke-width="2.815"/><line x1="497" x2="1297" y1="1523.4" y2="1605.6" fill="none" stroke="#24317f" stroke-miterlimit="10" stroke-width="2.815"/><line x1="492" x2="1292" y1="1601.2" y2="1684.7" fill="none" stroke="#24317f" stroke-miterlimit="10" stroke-width="2.815"/><line x1="487" x2="1287" y1="1679" y2="1763.8" fill="none" stroke="#24317f" stroke-miterlimit="10" stroke-width="2.815"/><line x1="641.4" x2="565.6" y1="753.5" y2="1687.4" fill="none" stroke="#f5961f" stroke-miterlimit="10" stroke-width="2.815"/><ellipse cx="578" cy="801.7" fill="#24317f" rx="13.8" ry="12.8" transform="rotate(-11.128 578.027 801.633)"/><path fill="none" stroke="#5362a0" stroke-linecap="round" stroke-linejoin="round" stroke-miterlimit="10" stroke-width="8.992" d="M516.7,860.7l-23.4-4.2c-14.4-2.6-24.5-17-24-33.9l0.2-5.9c0.9-27.8,22.3-49.5,46.1-46.8l44.4,4.9
					c11.8,1.3,20.2,13.3,18.9,27.1v0"/><ellipse cx="566.4" cy="938.6" fill="#24317f" rx="13.8" ry="12.8" transform="rotate(-11.128 566.458 938.479)"/><path fill="none" stroke="#5362a0" stroke-linecap="round" stroke-linejoin="round" stroke-miterlimit="10" stroke-width="8.992" d="M505.2,997.5l-23.4-4.2c-14.4-2.6-24.5-17-24-33.9l0.2-5.9c0.9-27.8,22.3-49.5,46.1-46.8l44.4,4.9
					c11.8,1.3,20.2,13.3,18.9,27.1h0"/><ellipse cx="554.8" cy="1075.4" fill="#24317f" rx="13.8" ry="12.8" transform="rotate(-11.128 554.888 1075.323)"/><path fill="none" stroke="#5362a0" stroke-linecap="round" stroke-linejoin="round" stroke-miterlimit="10" stroke-width="8.992" d="M493.6,1134.4l-23.4-4.2c-14.4-2.6-24.5-17-24-33.9l0.2-5.9c0.9-27.8,22.3-49.5,46.1-46.8l44.4,4.9
					c11.8,1.3,20.2,13.3,18.9,27.1l0,0"/><ellipse cx="543.2" cy="1212.3" fill="#24317f" rx="13.8" ry="12.8" transform="rotate(-11.128 543.319 1212.168)"/><path fill="none" stroke="#5362a0" stroke-linecap="round" stroke-linejoin="round" stroke-miterlimit="10" stroke-width="8.992" d="M482,1271.2l-23.4-4.2c-14.4-2.6-24.5-17-24-33.9l0.2-5.9c0.9-27.8,22.3-49.5,46.1-46.8l44.4,4.9
					c11.8,1.3,20.2,13.3,18.9,27.1v0"/><ellipse cx="531.6" cy="1349.1" fill="#24317f" rx="13.8" ry="12.8" transform="rotate(-11.128 531.75 1349.013)"/><path fill="none" stroke="#5362a0" stroke-linecap="round" stroke-linejoin="round" stroke-miterlimit="10" stroke-width="8.992" d="M470.4,1408.1l-23.4-4.2c-14.4-2.6-24.5-17-24-33.9l0.2-5.9c0.9-27.8,22.3-49.5,46.1-46.8l44.4,4.9
					c11.8,1.3,20.2,13.3,18.9,27.1l0,0"/><ellipse cx="520.1" cy="1486" fill="#24317f" rx="13.8" ry="12.8" transform="rotate(-11.128 520.18 1485.858)"/><path fill="none" stroke="#5362a0" stroke-linecap="round" stroke-linejoin="round" stroke-miterlimit="10" stroke-width="8.992" d="M458.8,1544.9l-23.4-4.2c-14.4-2.6-24.5-17-24-33.9l0.2-5.9c0.9-27.8,22.3-49.5,46.1-46.8l44.4,4.9
					c11.8,1.3,20.2,13.3,18.9,27.1l0,0"/><g><ellipse cx="508.5" cy="1622.8" fill="#24317f" rx="13.8" ry="12.8" transform="rotate(-11.128 508.61 1622.703)"/><path fill="none" stroke="#5362a0" stroke-linecap="round" stroke-linejoin="round" stroke-miterlimit="10" stroke-width="8.992" d="M447.2,1681.8l-23.4-4.2c-14.4-2.6-24.5-17-24-33.9l0.2-5.9c0.9-27.8,22.3-49.5,46.1-46.8l44.4,4.9
					c11.8,1.3,20.2,13.3,18.9,27.1l0,0"/></g></g><g><linearGradient id="w" x1="-8920.817" x2="-8550.657" y1="-7660.581" y2="-7660.581" gradientTransform="matrix(-.4175 -.4576 -.4576 .4169 -6094.057 816.566)" gradientUnits="userSpaceOnUse"><stop offset="0" stop-color="#cc984c"/><stop offset=".994" stop-color="#efcca3"/></linearGradient><polygon fill="url(#w)" points="1243.6 1606.2 949.6 1717.4 1084.9 1440.6"/><linearGradient id="x" x1="-8920.128" x2="-8547.906" y1="-8227.469" y2="-8227.469" gradientTransform="matrix(-.4175 -.4576 -.4576 .4169 -6094.057 816.566)" gradientUnits="userSpaceOnUse"><stop offset="0" stop-color="#505faa"/><stop offset="1" stop-color="#2c3c91"/></linearGradient><path fill="url(#x)" d="M1436,1118.4l-344.5,314.3c-0.3,0.2-0.5,0.5-0.7,0.7c-0.2,0.2-0.5,0.5-0.7,0.7c-0.4,0.4-0.8,0.8-1.2,1.3
					c-0.3,0.4-0.7,0.8-1,1.2c-0.4,0.4-0.7,0.9-1.1,1.4c-0.1,0.2-0.3,0.3-0.4,0.5c-0.2,0.3-0.4,0.5-0.5,0.8c-0.3,0.5-0.7,0.9-1,1.4
					c-0.3,0.4-0.6,0.9-0.8,1.4c-0.3,0.5-0.6,1-0.9,1.5c-0.1,0.2-0.3,0.4-0.4,0.6c-0.1,0.2-0.2,0.5-0.3,0.8c-0.3,0.6-0.5,1.1-0.8,1.7
					c-0.2,0.5-0.4,1-0.6,1.5c-0.2,0.6-0.5,1.2-0.7,1.8c-0.1,0.3-0.2,0.6-0.3,0.9c-0.1,0.4-0.2,0.7-0.3,1.1c-0.1,0.1-0.1,0.3-0.2,0.5
					c-0.3,1-0.5,2-0.8,3c0,0.2-0.1,0.4-0.1,0.6c-0.2,0.9-0.4,1.9-0.6,2.9c0,0.1,0,0.2,0,0.3c0,0.2-0.1,0.4-0.1,0.6
					c-0.1,0.9-0.3,1.9-0.4,2.9c0,0.3-0.1,0.5-0.1,0.8c-0.1,1.1-0.2,2.3-0.2,3.5c0,0.2,0,0.4,0,0.6c0,0.6-0.1,1.2,0,1.8
					c0,0.3,0,0.6,0,0.9c0,0.7,0,1.5,0,2.2c0,0.7,0,1.4,0.1,2.1c0,0.8,0.1,1.5,0.2,2.3c0.1,0.7,0.1,1.4,0.2,2.1
					c0.1,0.8,0.2,1.6,0.3,2.3c0.1,0.7,0.2,1.5,0.3,2.2c0.1,0.8,0.3,1.6,0.4,2.4c0.1,0.5,0.2,1,0.3,1.5c0.1,0.5,0.2,1.1,0.3,1.6
					c0.4,1.9,0.9,3.9,1.4,5.9c0.2,0.6,0.3,1.1,0.5,1.7c0.4,1.5,0.9,3,1.4,4.5c0.2,0.5,0.3,1,0.5,1.5c0.7,2,1.4,3.9,2.1,5.8
					c0.1,0.3,0.3,0.7,0.4,1c0.7,1.6,1.3,3.3,2.1,4.9c0.1,0.3,0.2,0.6,0.4,0.8c0.2,0.4,0.4,0.8,0.6,1.2c0.4,0.9,0.8,1.8,1.3,2.7
					c0,0.1,0.1,0.1,0.1,0.2c0.3,0.7,0.7,1.3,1,2c0.5,0.9,0.9,1.8,1.4,2.6c0.4,0.7,0.8,1.5,1.2,2.2c0.5,0.9,1,1.8,1.5,2.6
					c0.4,0.7,0.8,1.4,1.2,2.2c0.5,0.9,1.1,1.8,1.6,2.6c0.3,0.5,0.6,1,0.9,1.5c0.1,0.2,0.2,0.3,0.3,0.5c1.2,1.9,2.4,3.7,3.6,5.5
					c0.2,0.3,0.4,0.5,0.5,0.8c1.1,1.6,2.2,3.1,3.4,4.7c0.2,0.2,0.3,0.5,0.5,0.7c0.3,0.4,0.5,0.7,0.8,1c0.7,1,1.5,2,2.3,2.9
					c0.5,0.6,1,1.2,1.5,1.8c0.8,1,1.6,2,2.5,3c0.3,0.4,0.6,0.8,1,1.2c0.1,0.2,0.3,0.3,0.4,0.5c0.7,0.8,1.5,1.7,2.2,2.5
					c0.5,0.6,1,1.2,1.6,1.8c0.8,0.9,1.6,1.8,2.5,2.6c0.4,0.4,0.8,0.9,1.3,1.4c0.1,0.1,0.1,0.1,0.2,0.2c0.8,0.8,1.5,1.6,2.3,2.3
					c0.5,0.5,1.1,1.1,1.6,1.6c0.8,0.8,1.7,1.6,2.6,2.5c0.5,0.4,0.9,0.9,1.4,1.3c0,0,0.1,0,0.1,0.1c1,1,2.1,1.9,3.2,2.9
					c0.3,0.3,0.6,0.6,1,0.9c1.4,1.2,2.8,2.4,4.2,3.6l0,0c0.2,0.2,0.4,0.3,0.6,0.5c1.2,1,2.5,2,3.7,3c0.5,0.4,1,0.8,1.6,1.2
					c1,0.7,1.9,1.5,2.9,2.2c0.1,0.1,0.2,0.2,0.3,0.2c0.4,0.3,0.8,0.6,1.2,0.9c1.1,0.8,2.2,1.5,3.3,2.3c0.6,0.4,1.2,0.8,1.8,1.2
					c1,0.7,2,1.3,3,2c0.3,0.2,0.6,0.4,0.9,0.6c0.3,0.2,0.5,0.3,0.8,0.5c0.1,0.1,0.3,0.2,0.4,0.2c1.5,0.9,3,1.8,4.5,2.6
					c0.3,0.2,0.6,0.3,0.9,0.5c1.9,1,3.8,2,5.7,3c0.2,0.1,0.4,0.2,0.6,0.3c0.6,0.3,1.2,0.6,1.8,0.8c0.6,0.3,1.2,0.6,1.9,0.9
					c0.9,0.4,1.8,0.8,2.7,1.2c0.6,0.2,1.2,0.5,1.8,0.7c1,0.4,2,0.8,3,1.2c0.5,0.2,1,0.4,1.5,0.6c1.5,0.5,3,1.1,4.5,1.5
					c25,8,45.3,4.7,58-6.8l344.4-314.2c-0.5,0.4-1,0.9-1.5,1.3c-0.5,0.4-1,0.8-1.6,1.2c0,0,0,0,0,0c-0.5,0.4-1,0.8-1.6,1.1
					c0,0,0,0,0,0c-0.5,0.4-1.1,0.7-1.7,1.1c-0.5,0.3-1,0.6-1.6,0.9c-0.4,0.2-0.7,0.4-1.1,0.6c-0.1,0.1-0.2,0.1-0.3,0.2
					c-0.4,0.2-0.8,0.4-1.3,0.6c-0.1,0.1-0.3,0.1-0.4,0.2c-0.4,0.2-0.7,0.3-1.1,0.5c-1.1,0.5-2.3,0.9-3.5,1.2
					c-0.4,0.1-0.8,0.3-1.2,0.4c-0.2,0.1-0.3,0.1-0.5,0.1c-0.4,0.1-0.9,0.3-1.4,0.3c-0.1,0-0.3,0.1-0.4,0.1c-0.5,0.1-0.9,0.2-1.4,0.3
					c-1.5,0.3-3,0.5-4.5,0.7c-0.4,0.1-0.9,0.1-1.4,0.1c-0.4,0-0.8,0.1-1.2,0.1c-0.3,0-0.5,0-0.8,0c-0.4,0-0.8,0.1-1.3,0.1
					c-2,0.1-4,0-6.1-0.1c-0.6,0-1.3-0.1-1.9-0.1c-0.9-0.1-1.7-0.2-2.6-0.3c-0.5-0.1-1-0.1-1.6-0.2c-3.4-0.5-7-1.2-10.7-2.2
					c-0.6-0.1-1.1-0.3-1.7-0.5c-1.2-0.3-2.3-0.7-3.5-1c-0.8-0.2-1.5-0.5-2.2-0.7c-0.8-0.3-1.5-0.5-2.2-0.8c-1.3-0.5-2.6-1-3.9-1.5
					c-0.8-0.3-1.6-0.6-2.3-1c-0.9-0.4-1.8-0.8-2.7-1.2c-1.1-0.5-2.3-1.1-3.4-1.6c-0.3-0.1-0.5-0.3-0.8-0.4c-0.7-0.3-1.4-0.7-2.1-1.1
					c-1.2-0.6-2.4-1.2-3.6-1.9c-0.6-0.3-1.2-0.7-1.9-1.1c-1.1-0.6-2.2-1.3-3.3-1.9c-0.2-0.1-0.5-0.3-0.7-0.4c-0.3-0.2-0.6-0.4-1-0.6
					c-0.4-0.3-0.9-0.5-1.3-0.8c-0.8-0.5-1.7-1.1-2.5-1.6c-0.4-0.3-0.8-0.6-1.3-0.8c-0.7-0.5-1.5-1-2.2-1.5c-0.5-0.4-1.1-0.8-1.6-1.1
					c-0.3-0.2-0.5-0.4-0.8-0.6c-1.2-0.9-2.4-1.8-3.6-2.7c0,0,0,0,0,0c-0.4-0.3-0.9-0.7-1.3-1c-0.8-0.6-1.5-1.2-2.3-1.8
					c-0.6-0.5-1.1-0.9-1.7-1.3c-0.2-0.2-0.5-0.4-0.7-0.5c-0.6-0.5-1.2-1-1.7-1.5c-0.8-0.7-1.7-1.4-2.5-2.1c-0.3-0.3-0.6-0.6-0.9-0.8
					c-1.3-1.1-2.6-2.3-3.8-3.5c-0.3-0.3-0.5-0.5-0.8-0.8c0,0-0.1-0.1-0.1-0.1c-1-0.9-1.9-1.8-2.9-2.8c-0.4-0.4-0.8-0.8-1.2-1.2
					c-0.8-0.8-1.5-1.5-2.3-2.3c-0.5-0.5-1-1-1.5-1.6c-0.8-0.9-1.6-1.7-2.5-2.6c-0.5-0.6-1-1.2-1.6-1.8c-0.7-0.8-1.5-1.7-2.2-2.5
					c-0.5-0.5-0.9-1.1-1.4-1.7c-0.8-1-1.6-2-2.5-3c-0.4-0.5-0.8-1-1.2-1.5c-0.2-0.3-0.4-0.5-0.6-0.8c-0.6-0.8-1.3-1.7-1.9-2.5
					c-0.3-0.3-0.5-0.7-0.8-1c-0.8-1-1.5-2.1-2.3-3.1c-1.3-1.7-2.5-3.5-3.6-5.3c-0.4-0.6-0.8-1.3-1.2-1.9c-0.8-1.2-1.5-2.4-2.3-3.6
					c-0.5-0.8-1-1.6-1.4-2.4c-0.8-1.3-1.5-2.6-2.2-3.9c-0.2-0.3-0.4-0.7-0.6-1c-0.3-0.5-0.5-1-0.8-1.5c-0.7-1.3-1.3-2.6-2-3.8
					c-0.2-0.4-0.4-0.8-0.6-1.2c-0.1-0.2-0.2-0.3-0.2-0.5c-0.4-0.9-0.8-1.8-1.3-2.7c-0.3-0.7-0.6-1.3-0.9-2c-0.7-1.6-1.4-3.2-2.1-4.9
					c0,0,0-0.1,0-0.1c-0.2-0.4-0.3-0.8-0.5-1.2c-0.7-1.9-1.4-3.7-2.1-5.6c-0.2-0.5-0.4-1.1-0.5-1.6c-0.5-1.5-0.9-3-1.4-4.4
					c-0.2-0.6-0.3-1.1-0.5-1.7c-0.5-1.9-1-3.9-1.4-5.8c-0.1-0.5-0.2-1-0.3-1.5c-0.1-0.5-0.2-1-0.3-1.5c-0.2-0.8-0.3-1.6-0.4-2.4
					c-0.1-0.5-0.1-1-0.2-1.5c-0.1-0.6-0.2-1.3-0.3-1.9c-0.1-0.4-0.1-0.8-0.1-1.2c-0.1-0.7-0.1-1.4-0.2-2.1c-0.1-0.7-0.1-1.5-0.2-2.2
					c0-0.1,0-0.2,0-0.3c0-0.6-0.1-1.2-0.1-1.8c0-0.7,0-1.5,0-2.2c0-2.5,0.1-4.9,0.3-7.2l0-0.4c0.1-0.5,0.1-1,0.2-1.5
					c0.4-3.1,1-6,1.8-8.8c0-0.2,0.1-0.3,0.1-0.5c0.1-0.3,0.2-0.7,0.3-1c0.1-0.3,0.2-0.7,0.3-1c0.2-0.6,0.4-1.2,0.7-1.8
					c0.2-0.5,0.4-1,0.6-1.5c0.2-0.6,0.5-1.1,0.8-1.7c0.2-0.5,0.5-1,0.7-1.4c0.3-0.5,0.6-1,0.9-1.5c0.3-0.5,0.5-0.9,0.8-1.3
					c0.3-0.5,0.6-1,1-1.4c0.3-0.4,0.6-0.9,0.9-1.3c0.2-0.2,0.3-0.5,0.5-0.7c0.2-0.2,0.4-0.4,0.6-0.7c0.3-0.4,0.6-0.7,0.9-1.1
					c0.1-0.1,0.1-0.1,0.2-0.2c0.7-0.7,1.4-1.4,2.1-2.1C1435.7,1118.7,1435.8,1118.6,1436,1118.4z"/><path fill="#dd7680" d="M1494,1111.6c-49.6-15.8-81,12.4-70,63.1c11,50.6,60.1,104.5,109.7,120.3c49.6,15.8,81-12.5,70-63.1
						S1543.6,1127.4,1494,1111.6z"/><linearGradient id="y" x1="-8544.525" x2="-8765.938" y1="-8205.137" y2="-8205.137" gradientTransform="matrix(-.4175 -.4576 -.4576 .4169 -6094.057 816.566)" gradientUnits="userSpaceOnUse"><stop offset="0" stop-color="#171e60"/><stop offset="1" stop-color="#2c3c91"/></linearGradient><path fill="url(#y)" d="M1458.6,1183.4l-368.4,335.7c0.3,0.7,0.7,1.3,1,2c0.5,0.9,0.9,1.8,1.4,2.6c0.4,0.7,0.8,1.5,1.2,2.2
			c0.5,0.9,1,1.8,1.5,2.6c0.4,0.7,0.8,1.4,1.2,2.2c0.5,0.9,1.1,1.8,1.6,2.6c0.3,0.5,0.6,1,0.9,1.5c0.1,0.2,0.2,0.3,0.3,0.5
			c1.2,1.9,2.4,3.7,3.6,5.5c0.2,0.3,0.4,0.5,0.5,0.8c1.1,1.6,2.2,3.1,3.4,4.7c0.2,0.2,0.3,0.5,0.5,0.7c0.3,0.4,0.5,0.7,0.8,1
			c0.7,1,1.5,2,2.3,2.9c0.5,0.6,1,1.2,1.5,1.8c0.8,1,1.6,2,2.5,3c0.3,0.4,0.6,0.8,1,1.2c0.1,0.2,0.3,0.3,0.4,0.5
			c0.7,0.8,1.5,1.7,2.2,2.5c0.5,0.6,1,1.2,1.6,1.8c0.8,0.9,1.6,1.8,2.5,2.6c0.4,0.4,0.8,0.9,1.3,1.4c0.1,0.1,0.1,0.1,0.2,0.2
			c0.8,0.8,1.5,1.6,2.3,2.3c0.5,0.5,1.1,1.1,1.6,1.6c0.8,0.8,1.7,1.6,2.6,2.5c0.5,0.4,0.9,0.9,1.4,1.3c0,0,0.1,0,0.1,0.1
			c1,1,2.1,1.9,3.2,2.9c0.3,0.3,0.6,0.6,1,0.9c1.4,1.2,2.8,2.4,4.2,3.6l0,0c0.2,0.2,0.4,0.3,0.6,0.5c1.2,1,2.5,2,3.7,3
			c0.5,0.4,1,0.8,1.6,1.2c1,0.7,1.9,1.5,2.9,2.2c0.1,0.1,0.2,0.2,0.3,0.2c0.4,0.3,0.8,0.6,1.2,0.9c1.1,0.8,2.2,1.5,3.3,2.3
			c0.6,0.4,1.2,0.8,1.8,1.2c1,0.7,2,1.3,3,2c0.3,0.2,0.6,0.4,0.9,0.6c0.3,0.2,0.5,0.3,0.8,0.5c0.1,0.1,0.3,0.2,0.4,0.2l368.3-335.6
			L1458.6,1183.4z"/><linearGradient id="z" x1="-8920.13" x2="-8547.916" y1="-8672.828" y2="-8672.828" gradientTransform="matrix(-.4175 -.4576 -.4576 .4169 -6094.057 816.566)" gradientUnits="userSpaceOnUse"><stop offset="0" stop-color="#8f92c7"/><stop offset=".128" stop-color="#9599ca"/><stop offset=".47" stop-color="#fff"/><stop offset=".842" stop-color="#b1b5da"/><stop offset="1" stop-color="#cfd5eb"/></linearGradient><path fill="url(#z)" d="M1498.2,1061.9c-0.4,0.4-0.8,0.8-1.2,1.3c-0.3,0.4-0.7,0.8-1,1.2c-0.4,0.4-0.7,0.9-1.1,1.4
					c-0.3,0.4-0.6,0.8-0.9,1.3c-0.3,0.5-0.7,0.9-1,1.4c-0.3,0.4-0.6,0.9-0.8,1.3c-0.3,0.5-0.6,1-0.9,1.5c-0.2,0.5-0.5,0.9-0.7,1.4
					c-0.3,0.6-0.5,1.1-0.8,1.7c-0.2,0.5-0.4,1-0.6,1.5c-0.2,0.6-0.5,1.2-0.7,1.8c-0.2,0.7-0.5,1.3-0.7,2c0,0.2-0.1,0.3-0.1,0.5
					c-0.3,1-0.5,2-0.8,3c0,0.2-0.1,0.4-0.1,0.6c-0.2,1-0.4,2.1-0.6,3.2c0,0.2-0.1,0.4-0.1,0.6c-0.1,0.9-0.3,1.9-0.4,2.9
					c0,0.3-0.1,0.5-0.1,0.8c-0.1,1.1-0.2,2.3-0.2,3.5c0,0.2,0,0.4,0,0.6c0,0.9,0,1.8,0,2.7c0,0.7,0,1.5,0,2.2c0,0.7,0.1,1.4,0.1,2.1
					c0,0.8,0.1,1.5,0.2,2.3c0.1,0.7,0.1,1.4,0.2,2.1c0.1,0.8,0.2,1.6,0.3,2.4c0.1,0.7,0.2,1.5,0.3,2.2c0.1,0.8,0.3,1.6,0.4,2.4
					c0.2,1,0.4,2,0.6,3.1c0.4,1.9,0.9,3.9,1.4,5.8c0.2,0.6,0.3,1.1,0.5,1.7c0.4,1.5,0.9,3,1.4,4.5c0.2,0.5,0.3,1,0.5,1.5
					c0.7,1.9,1.4,3.9,2.1,5.8c0.1,0.3,0.3,0.7,0.4,1c0.7,1.6,1.3,3.3,2.1,4.9c0.3,0.7,0.6,1.3,0.9,2c0.4,0.9,0.8,1.8,1.3,2.6
					c0.4,0.7,0.7,1.5,1.1,2.2c0.4,0.9,0.9,1.8,1.4,2.6c0.4,0.7,0.8,1.5,1.2,2.2c0.5,0.9,1,1.8,1.5,2.6c0.4,0.7,0.8,1.4,1.2,2.2
					c0.5,0.9,1.1,1.8,1.6,2.6c0.4,0.7,0.8,1.3,1.2,2c1.2,1.8,2.4,3.7,3.6,5.5c0.2,0.3,0.4,0.5,0.5,0.8c1.1,1.6,2.2,3.1,3.4,4.7
					c0.4,0.6,0.9,1.2,1.3,1.8c0.7,1,1.5,2,2.3,2.9c0.5,0.6,1,1.2,1.5,1.8c0.8,1,1.6,2,2.5,3c0.5,0.6,0.9,1.1,1.4,1.7
					c0.7,0.9,1.5,1.7,2.2,2.5c0.5,0.6,1,1.2,1.6,1.8c0.8,0.9,1.6,1.8,2.5,2.6c0.5,0.5,1,1,1.5,1.6c0.8,0.8,1.5,1.6,2.3,2.3
					c0.5,0.5,1.1,1.1,1.6,1.6c0.9,0.8,1.7,1.7,2.6,2.5c0.5,0.5,1,0.9,1.5,1.4c1.1,1,2.1,1.9,3.2,2.9c0.3,0.3,0.6,0.6,0.9,0.9
					c1.4,1.2,2.8,2.4,4.2,3.6c0.2,0.2,0.4,0.4,0.7,0.5c1.2,1,2.5,2,3.7,3c0.5,0.4,1,0.8,1.6,1.2c1,0.7,1.9,1.5,2.9,2.2
					c0.5,0.4,1,0.7,1.5,1.1c1.1,0.8,2.2,1.5,3.3,2.3c0.6,0.4,1.2,0.8,1.8,1.2c1,0.7,2,1.3,3,2c0.6,0.4,1.2,0.7,1.7,1.1
					c1.6,1,3.3,2,4.9,2.9c0.3,0.2,0.6,0.3,0.9,0.5c1.9,1.1,3.8,2,5.7,3c0.8,0.4,1.6,0.8,2.4,1.1c0.6,0.3,1.2,0.6,1.9,0.9
					c0.9,0.4,1.8,0.8,2.7,1.2c0.6,0.3,1.2,0.5,1.8,0.8c1,0.4,2,0.8,3,1.2c0.5,0.2,1,0.4,1.5,0.6c1.5,0.5,3,1.1,4.5,1.5
					c9.4,3,18.1,4.4,26,4.4c13.2,0,24.1-4,32-11.2l0,0c0,0,0,0,0,0l-64.2,58.9c-12.7,11.6-33,14.8-58,6.9c-1.5-0.5-3-1-4.5-1.5
					c-0.5-0.2-1-0.4-1.5-0.6c-1-0.4-2-0.8-3-1.2c-0.6-0.2-1.2-0.5-1.8-0.8c-0.9-0.4-1.8-0.8-2.7-1.2c-0.6-0.3-1.2-0.6-1.9-0.9
					c-0.6-0.3-1.2-0.5-1.8-0.8c-0.2-0.1-0.4-0.2-0.6-0.3c-1.9-1-3.8-1.9-5.7-3c-0.3-0.2-0.6-0.3-0.9-0.5c-1.6-0.9-3.3-1.9-4.9-2.9
					c-0.3-0.2-0.5-0.3-0.8-0.5c-0.3-0.2-0.6-0.4-0.9-0.6c-1-0.6-2-1.3-3-2c-0.6-0.4-1.2-0.8-1.8-1.2c-1.1-0.7-2.2-1.5-3.3-2.3
					c-0.4-0.3-0.8-0.6-1.2-0.8c-0.1-0.1-0.2-0.2-0.3-0.2c-1-0.7-1.9-1.4-2.9-2.2c-0.5-0.4-1-0.8-1.6-1.2c-1.3-1-2.5-2-3.7-3
					c-0.2-0.2-0.4-0.3-0.6-0.5c0,0,0,0,0,0c-1.4-1.2-2.8-2.4-4.2-3.6c-0.3-0.3-0.6-0.6-1-0.9c-1.1-0.9-2.1-1.9-3.2-2.9
					c0,0-0.1,0-0.1-0.1c-0.5-0.4-0.9-0.9-1.4-1.3c-0.9-0.8-1.7-1.6-2.6-2.5c-0.5-0.5-1.1-1.1-1.6-1.6c-0.8-0.8-1.6-1.6-2.3-2.3
					c-0.1-0.1-0.1-0.1-0.2-0.2c-0.4-0.4-0.8-0.9-1.3-1.4c-0.8-0.9-1.6-1.7-2.4-2.6c-0.5-0.6-1-1.2-1.6-1.8c-0.7-0.8-1.5-1.7-2.2-2.5
					c-0.1-0.2-0.3-0.3-0.4-0.5c-0.3-0.4-0.7-0.8-1-1.2c-0.8-1-1.7-2-2.5-3c-0.5-0.6-1-1.2-1.5-1.8c-0.8-1-1.5-2-2.3-2.9
					c-0.3-0.3-0.5-0.7-0.8-1c-0.2-0.2-0.3-0.5-0.5-0.7c-1.1-1.6-2.3-3.1-3.4-4.7c-0.2-0.3-0.4-0.5-0.5-0.8c-1.2-1.8-2.4-3.7-3.6-5.5
					c-0.1-0.2-0.2-0.3-0.3-0.5c-0.3-0.5-0.6-1-0.9-1.5c-0.5-0.9-1.1-1.7-1.6-2.6c-0.4-0.7-0.8-1.4-1.2-2.2c-0.5-0.9-1-1.8-1.5-2.6
					c-0.4-0.7-0.8-1.5-1.2-2.2c-0.5-0.9-0.9-1.8-1.4-2.6c-0.4-0.7-0.7-1.5-1.1-2.2c-0.4-0.9-0.9-1.8-1.3-2.7
					c-0.2-0.4-0.4-0.8-0.5-1.2c-0.1-0.3-0.2-0.6-0.4-0.8c-0.7-1.6-1.4-3.2-2.1-4.9c-0.1-0.3-0.3-0.7-0.4-1c-0.8-1.9-1.5-3.9-2.1-5.8
					c-0.2-0.5-0.3-1-0.5-1.5c-0.5-1.5-1-3-1.4-4.5c-0.2-0.6-0.3-1.1-0.5-1.7c-0.5-2-1-3.9-1.4-5.8c-0.1-0.5-0.2-1.1-0.3-1.6
					c-0.1-0.5-0.2-1-0.3-1.5c-0.2-0.8-0.3-1.6-0.4-2.4c-0.1-0.7-0.2-1.5-0.3-2.2c-0.1-0.8-0.2-1.6-0.3-2.4c-0.1-0.7-0.1-1.4-0.2-2.1
					c-0.1-0.8-0.1-1.5-0.2-2.3c0-0.7-0.1-1.4-0.1-2.1c0-0.7,0-1.5,0-2.2c0-0.3,0-0.6,0-0.9c0-0.6,0-1.2,0-1.8c0-0.2,0-0.4,0-0.6
					c0-1.2,0.1-2.3,0.2-3.5c0-0.3,0.1-0.5,0.1-0.8c0.1-1,0.2-1.9,0.4-2.9c0-0.2,0.1-0.4,0.1-0.6c0-0.1,0-0.2,0-0.3
					c0.2-1,0.4-1.9,0.6-2.9c0-0.2,0.1-0.4,0.1-0.6c0.2-1,0.5-2,0.8-3c0-0.2,0.1-0.3,0.1-0.5c0.1-0.4,0.2-0.7,0.3-1.1
					c0.1-0.3,0.2-0.6,0.3-0.9c0.2-0.6,0.4-1.2,0.7-1.8c0.2-0.5,0.4-1,0.6-1.5c0.3-0.6,0.5-1.2,0.8-1.7c0.1-0.3,0.2-0.5,0.4-0.8
					c0.1-0.2,0.2-0.4,0.4-0.6c0.3-0.5,0.6-1,0.9-1.5c0.3-0.5,0.5-0.9,0.8-1.4c0.3-0.5,0.6-1,1-1.4c0.2-0.3,0.3-0.5,0.5-0.8
					c0.1-0.2,0.3-0.3,0.4-0.5c0.4-0.5,0.7-0.9,1.1-1.4c0.3-0.4,0.7-0.8,1-1.2c0.4-0.4,0.8-0.8,1.2-1.3c0.2-0.2,0.5-0.5,0.7-0.7
					c0.2-0.2,0.5-0.5,0.7-0.7l64.2-58.9C1499.1,1060.9,1498.7,1061.4,1498.2,1061.9z"/><path fill="#dd7680" d="M1557.6,1053.6c-49.6-15.8-81,12.4-70,63.1c11,50.6,60.1,104.5,109.7,120.3c49.6,15.8,81-12.5,70-63.1
						C1656.4,1123.3,1607.2,1069.4,1557.6,1053.6z"/><path fill="#c44d53" d="M1573.2,993.5c-0.4,0.4-0.8,0.8-1.2,1.3c-0.3,0.4-0.7,0.8-1,1.2c-0.4,0.4-0.7,0.9-1.1,1.4
					c-0.3,0.4-0.6,0.8-0.9,1.3c-0.3,0.5-0.7,0.9-1,1.4c-0.3,0.4-0.6,0.9-0.8,1.3c-0.3,0.5-0.6,1-0.9,1.5c-0.2,0.5-0.5,0.9-0.7,1.4
					c-0.3,0.6-0.5,1.1-0.8,1.7c-0.2,0.5-0.4,1-0.6,1.5c-0.2,0.6-0.5,1.2-0.7,1.8c-0.2,0.7-0.5,1.3-0.7,2c0,0.2-0.1,0.3-0.1,0.5
					c-0.3,1-0.5,2-0.8,3c0,0.2-0.1,0.4-0.1,0.6c-0.2,1-0.4,2.1-0.6,3.2c0,0.2-0.1,0.4-0.1,0.6c-0.1,0.9-0.3,1.9-0.4,2.9
					c0,0.3-0.1,0.5-0.1,0.8c-0.1,1.1-0.2,2.3-0.2,3.5c0,0.2,0,0.4,0,0.6c0,0.9,0,1.8,0,2.7c0,0.7,0,1.5,0,2.2c0,0.7,0.1,1.4,0.1,2.1
					c0,0.8,0.1,1.5,0.2,2.3c0.1,0.7,0.1,1.4,0.2,2.1c0.1,0.8,0.2,1.6,0.3,2.4c0.1,0.7,0.2,1.5,0.3,2.2c0.1,0.8,0.3,1.6,0.4,2.4
					c0.2,1,0.4,2,0.6,3.1c0.4,1.9,0.9,3.9,1.4,5.8c0.2,0.6,0.3,1.1,0.5,1.7c0.4,1.5,0.9,3,1.4,4.5c0.2,0.5,0.3,1,0.5,1.5
					c0.7,1.9,1.4,3.9,2.1,5.8c0.1,0.3,0.3,0.7,0.4,1c0.7,1.6,1.3,3.3,2.1,4.9c0.3,0.7,0.6,1.3,0.9,2c0.4,0.9,0.8,1.8,1.3,2.6
					c0.4,0.7,0.7,1.5,1.1,2.2c0.4,0.9,0.9,1.8,1.4,2.6c0.4,0.7,0.8,1.5,1.2,2.2c0.5,0.9,1,1.8,1.5,2.6c0.4,0.7,0.8,1.4,1.2,2.2
					c0.5,0.9,1.1,1.8,1.6,2.6c0.4,0.7,0.8,1.3,1.2,2c1.2,1.8,2.4,3.7,3.6,5.5c0.2,0.3,0.4,0.5,0.5,0.8c1.1,1.6,2.2,3.1,3.4,4.7
					c0.4,0.6,0.9,1.2,1.3,1.8c0.7,1,1.5,2,2.3,2.9c0.5,0.6,1,1.2,1.5,1.8c0.8,1,1.6,2,2.5,3c0.5,0.6,0.9,1.1,1.4,1.7
					c0.7,0.9,1.5,1.7,2.2,2.5c0.5,0.6,1,1.2,1.6,1.8c0.8,0.9,1.6,1.8,2.5,2.6c0.5,0.5,1,1,1.5,1.6c0.8,0.8,1.5,1.6,2.3,2.3
					c0.5,0.5,1.1,1.1,1.6,1.6c0.9,0.8,1.7,1.7,2.6,2.5c0.5,0.5,1,0.9,1.5,1.4c1.1,1,2.1,1.9,3.2,2.9c0.3,0.3,0.6,0.6,0.9,0.9
					c1.4,1.2,2.8,2.4,4.2,3.6c0.2,0.2,0.4,0.4,0.7,0.5c1.2,1,2.5,2,3.7,3c0.5,0.4,1,0.8,1.6,1.2c1,0.7,1.9,1.5,2.9,2.2
					c0.5,0.4,1,0.7,1.5,1.1c1.1,0.8,2.2,1.5,3.3,2.3c0.6,0.4,1.2,0.8,1.8,1.2c1,0.7,2,1.3,3,2c0.6,0.4,1.2,0.7,1.7,1.1
					c1.6,1,3.3,2,4.9,2.9c0.3,0.2,0.6,0.3,0.9,0.5c1.9,1.1,3.8,2,5.7,3c0.8,0.4,1.6,0.8,2.4,1.1c0.6,0.3,1.2,0.6,1.9,0.9
					c0.9,0.4,1.8,0.8,2.7,1.2c0.6,0.3,1.2,0.5,1.8,0.8c1,0.4,2,0.8,3,1.2c0.5,0.2,1,0.4,1.5,0.6c1.5,0.5,3,1.1,4.5,1.5
					c9.4,3,18.1,4.4,26,4.4c13.2,0,24.1-4,32-11.2l0,0c0,0,0,0,0,0l-74.6,68.3c-12.7,11.6-33,14.8-58,6.9c-1.5-0.5-3-1-4.5-1.5
					c-0.5-0.2-1-0.4-1.5-0.6c-1-0.4-2-0.8-3-1.2c-0.6-0.2-1.2-0.5-1.8-0.8c-0.9-0.4-1.8-0.8-2.7-1.2c-0.6-0.3-1.2-0.6-1.9-0.9
					c-0.6-0.3-1.2-0.5-1.8-0.8c-0.2-0.1-0.4-0.2-0.6-0.3c-1.9-1-3.8-1.9-5.7-3c-0.3-0.2-0.6-0.3-0.9-0.5c-1.6-0.9-3.3-1.9-4.9-2.9
					c-0.3-0.2-0.5-0.3-0.8-0.5c-0.3-0.2-0.6-0.4-0.9-0.6c-1-0.6-2-1.3-3-2c-0.6-0.4-1.2-0.8-1.8-1.2c-1.1-0.7-2.2-1.5-3.3-2.3
					c-0.4-0.3-0.8-0.6-1.2-0.8c-0.1-0.1-0.2-0.2-0.3-0.2c-1-0.7-1.9-1.4-2.9-2.2c-0.5-0.4-1-0.8-1.6-1.2c-1.3-1-2.5-2-3.7-3
					c-0.2-0.2-0.4-0.3-0.6-0.5c0,0,0,0,0,0c-1.4-1.2-2.8-2.4-4.2-3.6c-0.3-0.3-0.6-0.6-1-0.9c-1.1-0.9-2.1-1.9-3.2-2.9
					c0,0-0.1,0-0.1-0.1c-0.5-0.4-0.9-0.9-1.4-1.3c-0.9-0.8-1.7-1.6-2.6-2.5c-0.5-0.5-1.1-1.1-1.6-1.6c-0.8-0.8-1.6-1.6-2.3-2.3
					c-0.1-0.1-0.1-0.1-0.2-0.2c-0.4-0.4-0.8-0.9-1.3-1.4c-0.8-0.9-1.6-1.7-2.4-2.6c-0.5-0.6-1-1.2-1.6-1.8c-0.7-0.8-1.5-1.7-2.2-2.5
					c-0.1-0.2-0.3-0.3-0.4-0.5c-0.3-0.4-0.7-0.8-1-1.2c-0.8-1-1.7-2-2.5-3c-0.5-0.6-1-1.2-1.5-1.8c-0.8-1-1.5-2-2.3-2.9
					c-0.3-0.3-0.5-0.7-0.8-1c-0.2-0.2-0.3-0.5-0.5-0.7c-1.1-1.6-2.3-3.1-3.4-4.7c-0.2-0.3-0.4-0.5-0.5-0.8c-1.2-1.8-2.4-3.7-3.6-5.5
					c-0.1-0.2-0.2-0.3-0.3-0.5c-0.3-0.5-0.6-1-0.9-1.5c-0.5-0.9-1.1-1.7-1.6-2.6c-0.4-0.7-0.8-1.4-1.2-2.2c-0.5-0.9-1-1.8-1.5-2.6
					c-0.4-0.7-0.8-1.5-1.2-2.2c-0.5-0.9-0.9-1.8-1.4-2.6c-0.4-0.7-0.7-1.5-1.1-2.2c-0.4-0.9-0.9-1.8-1.3-2.7
					c-0.2-0.4-0.4-0.8-0.5-1.2c-0.1-0.3-0.2-0.6-0.4-0.8c-0.7-1.6-1.4-3.2-2.1-4.9c-0.1-0.3-0.3-0.7-0.4-1c-0.8-1.9-1.5-3.9-2.1-5.8
					c-0.2-0.5-0.3-1-0.5-1.5c-0.5-1.5-1-3-1.4-4.5c-0.2-0.6-0.3-1.1-0.5-1.7c-0.5-2-1-3.9-1.4-5.8c-0.1-0.5-0.2-1.1-0.3-1.6
					c-0.1-0.5-0.2-1-0.3-1.5c-0.2-0.8-0.3-1.6-0.4-2.4c-0.1-0.7-0.2-1.5-0.3-2.2c-0.1-0.8-0.2-1.6-0.3-2.4c-0.1-0.7-0.1-1.4-0.2-2.1
					c-0.1-0.8-0.1-1.5-0.2-2.3c0-0.7-0.1-1.4-0.1-2.1c0-0.7,0-1.5,0-2.2c0-0.3,0-0.6,0-0.9c0-0.6,0-1.2,0-1.8c0-0.2,0-0.4,0-0.6
					c0-1.2,0.1-2.3,0.2-3.5c0-0.3,0.1-0.5,0.1-0.8c0.1-1,0.2-1.9,0.4-2.9c0-0.2,0.1-0.4,0.1-0.6c0-0.1,0-0.2,0-0.3
					c0.2-1,0.4-1.9,0.6-2.9c0-0.2,0.1-0.4,0.1-0.6c0.2-1,0.5-2,0.8-3c0-0.2,0.1-0.3,0.1-0.5c0.1-0.4,0.2-0.7,0.3-1.1
					c0.1-0.3,0.2-0.6,0.3-0.9c0.2-0.6,0.4-1.2,0.7-1.8c0.2-0.5,0.4-1,0.6-1.5c0.3-0.6,0.5-1.2,0.8-1.7c0.1-0.3,0.2-0.5,0.4-0.8
					c0.1-0.2,0.2-0.4,0.4-0.6c0.3-0.5,0.6-1,0.9-1.5c0.3-0.5,0.5-0.9,0.8-1.4c0.3-0.5,0.6-1,1-1.4c0.2-0.3,0.3-0.5,0.5-0.8
					c0.1-0.2,0.3-0.3,0.4-0.5c0.4-0.5,0.7-0.9,1.1-1.4c0.3-0.4,0.7-0.8,1-1.2c0.4-0.4,0.8-0.8,1.2-1.3c0.2-0.2,0.5-0.5,0.7-0.7
					c0.2-0.2,0.5-0.5,0.7-0.7l74.6-68.3C1574.2,992.6,1573.7,993.1,1573.2,993.5z"/><path fill="#dd7680" d="M1632.6,985.3c-49.6-15.8-81,12.4-70,63.1c11,50.6,60.1,104.5,109.7,120.3c49.6,15.8,81-12.5,70-63.1
						C1731.4,1054.9,1682.3,1001.1,1632.6,985.3z"/><path fill="#35190a" d="M1082.1,1667.3l-9.2-1.8c-32.4-6.2-56.9-33-60.2-65.9l-0.9-9.5l-62.2,127.2L1082.1,1667.3z"/></g></svg>